<svg width="16" height="26" viewBox="0 0 16 26" fill="none" xmlns="http://www.w3.org/2000/svg">
<rect x="0.5" y="0.5" width="15" height="25" stroke="#262626"/>
<g filter="url(#filter0_diiii_205_2579)">
<rect x="1" y="1" width="14" height="24" fill="#BBBBBB"/>
<rect x="1.5" y="1.5" width="13" height="23" stroke="#262626"/>
<path fill-rule="evenodd" clip-rule="evenodd" d="M6 9.5H5.5V10V16H6V10H12V9.5H6Z" fill="#BBBBE1"/>
<path fill-rule="evenodd" clip-rule="evenodd" d="M6.5 10H6V10.5V16H6.5V10.5H12V10H6.5Z" fill="#9999A6"/>
<path fill-rule="evenodd" clip-rule="evenodd" d="M11.5 16L12 16L12 15.5L12 10.5L11.5 10.5L11.5 15.5L6.5 15.5L6.5 16L11.5 16Z" fill="white"/>
<path fill-rule="evenodd" clip-rule="evenodd" d="M11 15.5L11.5 15.5L11.5 15L11.5 10.5L11 10.5L11 15L6.5 15L6.5 15.5L11 15.5Z" fill="#D0D0D0"/>
<path fill-rule="evenodd" clip-rule="evenodd" d="M10.5 15L11 15L11 14.5L11 10.5L10.5 10.5L10.5 14.5L6.5 14.5L6.5 15L10.5 15Z" fill="#737373"/>
<path fill-rule="evenodd" clip-rule="evenodd" d="M10 14.5L10.5 14.5L10.5 14L10.5 10.5L10 10.5L10 14L6.5 14L6.5 14.5L10 14.5Z" fill="#515151"/>
<path fill-rule="evenodd" clip-rule="evenodd" d="M9.5 14L10 14L10 13.5L10 10.5L9.5 10.5L9.5 13.5L6.5 13.5L6.5 14L9.5 14Z" fill="#777777"/>
<path fill-rule="evenodd" clip-rule="evenodd" d="M5.5 9H5V9.5V16H5.5V9.5H12V9H5.5Z" fill="#AEAED4"/>
<path fill-rule="evenodd" clip-rule="evenodd" d="M5 8.5H4.5V9V16H5V9H12V8.5H5Z" fill="#737380"/>
<path fill-rule="evenodd" clip-rule="evenodd" d="M4.5 8H4V8.5V16H4.5V8.5H12V8H4.5Z" fill="#707070"/>
<rect x="6.5" y="10.5" width="3" height="3" fill="#888888"/>
</g>
<defs>
<filter id="filter0_diiii_205_2579" x="1" y="1" width="15" height="25" filterUnits="userSpaceOnUse" color-interpolation-filters="sRGB">
<feFlood flood-opacity="0" result="BackgroundImageFix"/>
<feColorMatrix in="SourceAlpha" type="matrix" values="0 0 0 0 0 0 0 0 0 0 0 0 0 0 0 0 0 0 127 0" result="hardAlpha"/>
<feOffset dx="1" dy="1"/>
<feColorMatrix type="matrix" values="0 0 0 0 0.14902 0 0 0 0 0.14902 0 0 0 0 0.14902 0 0 0 1 0"/>
<feBlend mode="normal" in2="BackgroundImageFix" result="effect1_dropShadow_205_2579"/>
<feBlend mode="normal" in="SourceGraphic" in2="effect1_dropShadow_205_2579" result="shape"/>
<feColorMatrix in="SourceAlpha" type="matrix" values="0 0 0 0 0 0 0 0 0 0 0 0 0 0 0 0 0 0 127 0" result="hardAlpha"/>
<feOffset dy="2"/>
<feComposite in2="hardAlpha" operator="arithmetic" k2="-1" k3="1"/>
<feColorMatrix type="matrix" values="0 0 0 0 1 0 0 0 0 1 0 0 0 0 1 0 0 0 1 0"/>
<feBlend mode="normal" in2="shape" result="effect2_innerShadow_205_2579"/>
<feColorMatrix in="SourceAlpha" type="matrix" values="0 0 0 0 0 0 0 0 0 0 0 0 0 0 0 0 0 0 127 0" result="hardAlpha"/>
<feOffset dx="2"/>
<feComposite in2="hardAlpha" operator="arithmetic" k2="-1" k3="1"/>
<feColorMatrix type="matrix" values="0 0 0 0 1 0 0 0 0 1 0 0 0 0 1 0 0 0 1 0"/>
<feBlend mode="normal" in2="effect2_innerShadow_205_2579" result="effect3_innerShadow_205_2579"/>
<feColorMatrix in="SourceAlpha" type="matrix" values="0 0 0 0 0 0 0 0 0 0 0 0 0 0 0 0 0 0 127 0" result="hardAlpha"/>
<feOffset dy="-2"/>
<feComposite in2="hardAlpha" operator="arithmetic" k2="-1" k3="1"/>
<feColorMatrix type="matrix" values="0 0 0 0 0.501961 0 0 0 0 0.501961 0 0 0 0 0.501961 0 0 0 1 0"/>
<feBlend mode="normal" in2="effect3_innerShadow_205_2579" result="effect4_innerShadow_205_2579"/>
<feColorMatrix in="SourceAlpha" type="matrix" values="0 0 0 0 0 0 0 0 0 0 0 0 0 0 0 0 0 0 127 0" result="hardAlpha"/>
<feOffset dx="-2"/>
<feComposite in2="hardAlpha" operator="arithmetic" k2="-1" k3="1"/>
<feColorMatrix type="matrix" values="0 0 0 0 0.501961 0 0 0 0 0.501961 0 0 0 0 0.501961 0 0 0 1 0"/>
<feBlend mode="normal" in2="effect4_innerShadow_205_2579" result="effect5_innerShadow_205_2579"/>
</filter>
</defs>
</svg>
