<svg width="16" height="26" viewBox="0 0 16 26" fill="none" xmlns="http://www.w3.org/2000/svg">
<rect x="0.5" y="0.5" width="14" height="25" stroke="#262626"/>
<g filter="url(#filter0_diiii_205_3530)">
<rect y="1" width="15" height="24" fill="#BBBBBB"/>
<rect x="0.5" y="1.5" width="14" height="23" stroke="#262626"/>
<path fill-rule="evenodd" clip-rule="evenodd" d="M7.5 7.5H8.5V8.5V9.5H10.5H11.5V10.5V14.5V15.5H10.5H8.5V16.5V17.5H7.5V16.5H6.5V15.5H7.5V14.5H10.5V10.5H7.5V9.5H6.5V8.5H7.5V7.5ZM5.5 10.5V9.5H6.5V10.5H5.5ZM4.5 11.5V10.5H5.5V11.5H4.5ZM4.5 13.5H3.5V11.5H4.5V13.5ZM5.5 14.5H4.5V13.5H5.5V14.5ZM5.5 14.5V15.5H6.5V14.5H5.5Z" fill="#5C5C5C"/>
<path fill-rule="evenodd" clip-rule="evenodd" d="M7.5 9.5H6.5V10.5H5.5V11.5H4.5V13.5H5.5V14.5H6.5V15.5H7.5V14.5H10.5V10.5H7.5V9.5Z" fill="#999999"/>
<g style="mix-blend-mode:darken">
<path fill-rule="evenodd" clip-rule="evenodd" d="M8.5 7H8V7.5H8.5V7ZM7 8H7.5V8.5H7V8ZM6.5 9H6V9.5H6.5V10H7H7.5V9.5H7H6.5V9ZM5.5 10H5V10.5H5.5V11H6V10.5H5.5V10ZM4.5 11H4V11.5H4.5V12H5V11.5H4.5V11ZM3 12H3.5V12.5V13H3V12.5V12ZM4 13.5H4.5V14H4V13.5ZM4.5 13.5H5V13H4.5V13.5ZM5.5 14.5H5V15H5.5V14.5ZM5.5 14.5V14H6V14.5H5.5ZM6 15.5H6.5V16H6V15.5ZM6.5 15.5V15H7H7.5V15.5H7H6.5ZM10 14H10.5V14.5H10V14ZM10.5 10.5H10V11H10.5V10.5ZM7 16.5H7.5V17H7V16.5ZM8.5 17.5H8V18H8.5V17.5ZM8.5 15.5H9V16H8.5V15.5ZM8.5 9H9V9.5H8.5V9ZM12 10H11.5V15H12V10Z" fill="#9A9A9A"/>
</g>
</g>
<defs>
<filter id="filter0_diiii_205_3530" x="0" y="1" width="16" height="25" filterUnits="userSpaceOnUse" color-interpolation-filters="sRGB">
<feFlood flood-opacity="0" result="BackgroundImageFix"/>
<feColorMatrix in="SourceAlpha" type="matrix" values="0 0 0 0 0 0 0 0 0 0 0 0 0 0 0 0 0 0 127 0" result="hardAlpha"/>
<feOffset dx="1" dy="1"/>
<feColorMatrix type="matrix" values="0 0 0 0 0.14902 0 0 0 0 0.14902 0 0 0 0 0.14902 0 0 0 1 0"/>
<feBlend mode="normal" in2="BackgroundImageFix" result="effect1_dropShadow_205_3530"/>
<feBlend mode="normal" in="SourceGraphic" in2="effect1_dropShadow_205_3530" result="shape"/>
<feColorMatrix in="SourceAlpha" type="matrix" values="0 0 0 0 0 0 0 0 0 0 0 0 0 0 0 0 0 0 127 0" result="hardAlpha"/>
<feOffset dy="2"/>
<feComposite in2="hardAlpha" operator="arithmetic" k2="-1" k3="1"/>
<feColorMatrix type="matrix" values="0 0 0 0 1 0 0 0 0 1 0 0 0 0 1 0 0 0 1 0"/>
<feBlend mode="normal" in2="shape" result="effect2_innerShadow_205_3530"/>
<feColorMatrix in="SourceAlpha" type="matrix" values="0 0 0 0 0 0 0 0 0 0 0 0 0 0 0 0 0 0 127 0" result="hardAlpha"/>
<feOffset dx="2"/>
<feComposite in2="hardAlpha" operator="arithmetic" k2="-1" k3="1"/>
<feColorMatrix type="matrix" values="0 0 0 0 1 0 0 0 0 1 0 0 0 0 1 0 0 0 1 0"/>
<feBlend mode="normal" in2="effect2_innerShadow_205_3530" result="effect3_innerShadow_205_3530"/>
<feColorMatrix in="SourceAlpha" type="matrix" values="0 0 0 0 0 0 0 0 0 0 0 0 0 0 0 0 0 0 127 0" result="hardAlpha"/>
<feOffset dy="-2"/>
<feComposite in2="hardAlpha" operator="arithmetic" k2="-1" k3="1"/>
<feColorMatrix type="matrix" values="0 0 0 0 0.501961 0 0 0 0 0.501961 0 0 0 0 0.501961 0 0 0 1 0"/>
<feBlend mode="normal" in2="effect3_innerShadow_205_3530" result="effect4_innerShadow_205_3530"/>
<feColorMatrix in="SourceAlpha" type="matrix" values="0 0 0 0 0 0 0 0 0 0 0 0 0 0 0 0 0 0 127 0" result="hardAlpha"/>
<feOffset dx="-2"/>
<feComposite in2="hardAlpha" operator="arithmetic" k2="-1" k3="1"/>
<feColorMatrix type="matrix" values="0 0 0 0 0.501961 0 0 0 0 0.501961 0 0 0 0 0.501961 0 0 0 1 0"/>
<feBlend mode="normal" in2="effect4_innerShadow_205_3530" result="effect5_innerShadow_205_3530"/>
</filter>
</defs>
</svg>
