<svg width="16" height="25" viewBox="0 0 16 25" fill="none" xmlns="http://www.w3.org/2000/svg">
<g filter="url(#filter0_diiii_205_2577)">
<rect width="15" height="24" fill="#BBBBBB"/>
<rect x="0.5" y="0.5" width="14" height="23" stroke="#262626"/>
<path fill-rule="evenodd" clip-rule="evenodd" d="M7.5 6.5H8.5V7.5V8.5H10.5H11.5V9.5V13.5V14.5H10.5H8.5V15.5V16.5H7.5V15.5H6.5V14.5H7.5V13.5H10.5V9.5H7.5V8.5H6.5V7.5H7.5V6.5ZM5.5 9.5V8.5H6.5V9.5H5.5ZM4.5 10.5V9.5H5.5V10.5H4.5ZM4.5 12.5H3.5V10.5H4.5V12.5ZM5.5 13.5H4.5V12.5H5.5V13.5ZM5.5 13.5V14.5H6.5V13.5H5.5Z" fill="#5C5C5C"/>
<path fill-rule="evenodd" clip-rule="evenodd" d="M7.5 8.5H6.5V9.5H5.5V10.5H4.5V12.5H5.5V13.5H6.5V14.5H7.5V13.5H10.5V9.5H7.5V8.5Z" fill="#999999"/>
<g style="mix-blend-mode:darken">
<path fill-rule="evenodd" clip-rule="evenodd" d="M8.5 6H8V6.5H8.5V6ZM7 7H7.5V7.5H7V7ZM6.5 8H6V8.5H6.5V9H7H7.5V8.5H7H6.5V8ZM5.5 9H5V9.5H5.5V10H6V9.5H5.5V9ZM4.5 10H4V10.5H4.5V11H5V10.5H4.5V10ZM3 11H3.5V11.5V12H3V11.5V11ZM4 12.5H4.5V13H4V12.5ZM4.5 12.5H5V12H4.5V12.5ZM5.5 13.5H5V14H5.5V13.5ZM5.5 13.5V13H6V13.5H5.5ZM6 14.5H6.5V15H6V14.5ZM6.5 14.5V14H7H7.5V14.5H7H6.5ZM10 13H10.5V13.5H10V13ZM10.5 9.5H10V10H10.5V9.5ZM7 15.5H7.5V16H7V15.5ZM8.5 16.5H8V17H8.5V16.5ZM8.5 14.5H9V15H8.5V14.5ZM8.5 8H9V8.5H8.5V8ZM12 9H11.5V14H12V9Z" fill="#9A9A9A"/>
</g>
</g>
<defs>
<filter id="filter0_diiii_205_2577" x="0" y="0" width="16" height="25" filterUnits="userSpaceOnUse" color-interpolation-filters="sRGB">
<feFlood flood-opacity="0" result="BackgroundImageFix"/>
<feColorMatrix in="SourceAlpha" type="matrix" values="0 0 0 0 0 0 0 0 0 0 0 0 0 0 0 0 0 0 127 0" result="hardAlpha"/>
<feOffset dx="1" dy="1"/>
<feColorMatrix type="matrix" values="0 0 0 0 0.14902 0 0 0 0 0.14902 0 0 0 0 0.14902 0 0 0 1 0"/>
<feBlend mode="normal" in2="BackgroundImageFix" result="effect1_dropShadow_205_2577"/>
<feBlend mode="normal" in="SourceGraphic" in2="effect1_dropShadow_205_2577" result="shape"/>
<feColorMatrix in="SourceAlpha" type="matrix" values="0 0 0 0 0 0 0 0 0 0 0 0 0 0 0 0 0 0 127 0" result="hardAlpha"/>
<feOffset dy="2"/>
<feComposite in2="hardAlpha" operator="arithmetic" k2="-1" k3="1"/>
<feColorMatrix type="matrix" values="0 0 0 0 1 0 0 0 0 1 0 0 0 0 1 0 0 0 1 0"/>
<feBlend mode="normal" in2="shape" result="effect2_innerShadow_205_2577"/>
<feColorMatrix in="SourceAlpha" type="matrix" values="0 0 0 0 0 0 0 0 0 0 0 0 0 0 0 0 0 0 127 0" result="hardAlpha"/>
<feOffset dx="2"/>
<feComposite in2="hardAlpha" operator="arithmetic" k2="-1" k3="1"/>
<feColorMatrix type="matrix" values="0 0 0 0 1 0 0 0 0 1 0 0 0 0 1 0 0 0 1 0"/>
<feBlend mode="normal" in2="effect2_innerShadow_205_2577" result="effect3_innerShadow_205_2577"/>
<feColorMatrix in="SourceAlpha" type="matrix" values="0 0 0 0 0 0 0 0 0 0 0 0 0 0 0 0 0 0 127 0" result="hardAlpha"/>
<feOffset dy="-2"/>
<feComposite in2="hardAlpha" operator="arithmetic" k2="-1" k3="1"/>
<feColorMatrix type="matrix" values="0 0 0 0 0.501961 0 0 0 0 0.501961 0 0 0 0 0.501961 0 0 0 1 0"/>
<feBlend mode="normal" in2="effect3_innerShadow_205_2577" result="effect4_innerShadow_205_2577"/>
<feColorMatrix in="SourceAlpha" type="matrix" values="0 0 0 0 0 0 0 0 0 0 0 0 0 0 0 0 0 0 127 0" result="hardAlpha"/>
<feOffset dx="-2"/>
<feComposite in2="hardAlpha" operator="arithmetic" k2="-1" k3="1"/>
<feColorMatrix type="matrix" values="0 0 0 0 0.501961 0 0 0 0 0.501961 0 0 0 0 0.501961 0 0 0 1 0"/>
<feBlend mode="normal" in2="effect4_innerShadow_205_2577" result="effect5_innerShadow_205_2577"/>
</filter>
</defs>
</svg>
