<svg width="17" height="26" viewBox="0 0 17 26" fill="none" xmlns="http://www.w3.org/2000/svg">
<rect x="0.5" y="0.5" width="16" height="25" stroke="#262626"/>
<g filter="url(#filter0_diiii_205_2582)">
<rect x="1" y="1" width="15" height="24" fill="#BBBBBB"/>
<rect x="1.5" y="1.5" width="14" height="23" stroke="#262626"/>
<path fill-rule="evenodd" clip-rule="evenodd" d="M8.5 17.5L7.5 17.5L7.5 16.5L7.5 15.5L5.5 15.5L4.5 15.5L4.5 14.5L4.5 10.5L4.5 9.5L5.5 9.5L7.5 9.5L7.5 8.5L7.5 7.5L8.5 7.5L8.5 8.5L9.5 8.5L9.5 9.5L8.5 9.5L8.5 10.5L5.5 10.5L5.5 14.5L8.5 14.5L8.5 15.5L9.5 15.5L9.5 16.5L8.5 16.5L8.5 17.5ZM10.5 14.5L10.5 15.5L9.5 15.5L9.5 14.5L10.5 14.5ZM11.5 13.5L11.5 14.5L10.5 14.5L10.5 13.5L11.5 13.5ZM11.5 11.5L12.5 11.5L12.5 13.5L11.5 13.5L11.5 11.5ZM10.5 10.5L11.5 10.5L11.5 11.5L10.5 11.5L10.5 10.5ZM10.5 10.5L10.5 9.5L9.5 9.5L9.5 10.5L10.5 10.5Z" fill="#5C5C5C"/>
<path fill-rule="evenodd" clip-rule="evenodd" d="M8.5 15.5L9.5 15.5L9.5 14.5L10.5 14.5L10.5 13.5L11.5 13.5L11.5 11.5L10.5 11.5L10.5 10.5L9.5 10.5L9.5 9.5L8.5 9.5L8.5 10.5L5.5 10.5L5.5 14.5L8.5 14.5L8.5 15.5Z" fill="#999999"/>
<g style="mix-blend-mode:darken">
<path fill-rule="evenodd" clip-rule="evenodd" d="M7.5 18L8 18L8 17.5L7.5 17.5L7.5 18ZM9 17L8.5 17L8.5 16.5L9 16.5L9 17ZM9.5 16L10 16L10 15.5L9.5 15.5L9.5 15L9 15L8.5 15L8.5 15.5L9 15.5L9.5 15.5L9.5 16ZM10.5 15L11 15L11 14.5L10.5 14.5L10.5 14L10 14L10 14.5L10.5 14.5L10.5 15ZM11.5 14L12 14L12 13.5L11.5 13.5L11.5 13L11 13L11 13.5L11.5 13.5L11.5 14ZM13 13L12.5 13L12.5 12.5L12.5 12L13 12L13 12.5L13 13ZM12 11.5L11.5 11.5L11.5 11L12 11L12 11.5ZM11.5 11.5L11 11.5L11 12L11.5 12L11.5 11.5ZM10.5 10.5L11 10.5L11 10L10.5 10L10.5 10.5ZM10.5 10.5L10.5 11L10 11L10 10.5L10.5 10.5ZM10 9.5L9.5 9.5L9.5 9L10 9L10 9.5ZM9.5 9.5L9.5 10L9 10L8.5 10L8.5 9.5L9 9.5L9.5 9.5ZM6 11L5.5 11L5.5 10.5L6 10.5L6 11ZM5.5 14.5L6 14.5L6 14L5.5 14L5.5 14.5ZM9 8.5L8.5 8.5L8.5 8L9 8L9 8.5ZM7.5 7.5L8 7.5L8 7L7.5 7L7.5 7.5ZM7.5 9.5L7 9.5L7 9L7.5 9L7.5 9.5ZM7.5 16L7 16L7 15.5L7.5 15.5L7.5 16ZM4 15L4.5 15L4.5 10L4 10L4 15Z" fill="#9A9A9A"/>
</g>
</g>
<defs>
<filter id="filter0_diiii_205_2582" x="1" y="1" width="16" height="25" filterUnits="userSpaceOnUse" color-interpolation-filters="sRGB">
<feFlood flood-opacity="0" result="BackgroundImageFix"/>
<feColorMatrix in="SourceAlpha" type="matrix" values="0 0 0 0 0 0 0 0 0 0 0 0 0 0 0 0 0 0 127 0" result="hardAlpha"/>
<feOffset dx="1" dy="1"/>
<feColorMatrix type="matrix" values="0 0 0 0 0.14902 0 0 0 0 0.14902 0 0 0 0 0.14902 0 0 0 1 0"/>
<feBlend mode="normal" in2="BackgroundImageFix" result="effect1_dropShadow_205_2582"/>
<feBlend mode="normal" in="SourceGraphic" in2="effect1_dropShadow_205_2582" result="shape"/>
<feColorMatrix in="SourceAlpha" type="matrix" values="0 0 0 0 0 0 0 0 0 0 0 0 0 0 0 0 0 0 127 0" result="hardAlpha"/>
<feOffset dy="2"/>
<feComposite in2="hardAlpha" operator="arithmetic" k2="-1" k3="1"/>
<feColorMatrix type="matrix" values="0 0 0 0 1 0 0 0 0 1 0 0 0 0 1 0 0 0 1 0"/>
<feBlend mode="normal" in2="shape" result="effect2_innerShadow_205_2582"/>
<feColorMatrix in="SourceAlpha" type="matrix" values="0 0 0 0 0 0 0 0 0 0 0 0 0 0 0 0 0 0 127 0" result="hardAlpha"/>
<feOffset dx="2"/>
<feComposite in2="hardAlpha" operator="arithmetic" k2="-1" k3="1"/>
<feColorMatrix type="matrix" values="0 0 0 0 1 0 0 0 0 1 0 0 0 0 1 0 0 0 1 0"/>
<feBlend mode="normal" in2="effect2_innerShadow_205_2582" result="effect3_innerShadow_205_2582"/>
<feColorMatrix in="SourceAlpha" type="matrix" values="0 0 0 0 0 0 0 0 0 0 0 0 0 0 0 0 0 0 127 0" result="hardAlpha"/>
<feOffset dy="-2"/>
<feComposite in2="hardAlpha" operator="arithmetic" k2="-1" k3="1"/>
<feColorMatrix type="matrix" values="0 0 0 0 0.501961 0 0 0 0 0.501961 0 0 0 0 0.501961 0 0 0 1 0"/>
<feBlend mode="normal" in2="effect3_innerShadow_205_2582" result="effect4_innerShadow_205_2582"/>
<feColorMatrix in="SourceAlpha" type="matrix" values="0 0 0 0 0 0 0 0 0 0 0 0 0 0 0 0 0 0 127 0" result="hardAlpha"/>
<feOffset dx="-2"/>
<feComposite in2="hardAlpha" operator="arithmetic" k2="-1" k3="1"/>
<feColorMatrix type="matrix" values="0 0 0 0 0.501961 0 0 0 0 0.501961 0 0 0 0 0.501961 0 0 0 1 0"/>
<feBlend mode="normal" in2="effect4_innerShadow_205_2582" result="effect5_innerShadow_205_2582"/>
</filter>
</defs>
</svg>
