<svg width="15" height="12" viewBox="0 0 15 12" fill="none" xmlns="http://www.w3.org/2000/svg">
<rect x="0.882812" y="0.884644" width="13.2353" height="9.73077" fill="#AAAAAA"/>
<rect x="0.441406" width="0.441176" height="0.442308" fill="#B4B4B4"/>
<rect x="0.441406" y="0.442261" width="0.441176" height="0.442308" fill="#8B8B8B"/>
<rect x="0.441406" y="0.884644" width="0.441176" height="0.442308" fill="#565656"/>
<rect y="0.442261" width="0.441176" height="0.442308" fill="#B4B4B4"/>
<rect y="0.884644" width="0.441176" height="0.442308" fill="#616161"/>
<rect x="0.882812" width="0.441177" height="0.442308" fill="#616161"/>
<rect x="0.882812" y="0.442261" width="0.441177" height="0.442308" fill="#565656"/>
<rect x="0.882812" y="0.884644" width="0.441177" height="0.442308" fill="#949494"/>
<rect width="0.441176" height="0.442308" transform="matrix(1 0 0 -1 0.441406 11.5)" fill="#B4B4B4"/>
<rect width="0.441176" height="0.442307" transform="matrix(1 0 0 -1 0.441406 11.0577)" fill="#8B8B8B"/>
<rect width="0.441176" height="0.442308" transform="matrix(1 0 0 -1 0.441406 10.6154)" fill="#565656"/>
<rect width="0.441176" height="0.442307" transform="matrix(1 0 0 -1 0 11.0577)" fill="#B4B4B4"/>
<rect width="0.441176" height="0.442308" transform="matrix(1 0 0 -1 0 10.6154)" fill="#616161"/>
<rect width="0.441177" height="0.442308" transform="matrix(1 0 0 -1 0.882812 11.5)" fill="#616161"/>
<rect width="0.441177" height="0.442307" transform="matrix(1 0 0 -1 0.882812 11.0577)" fill="#565656"/>
<rect width="0.441177" height="0.442308" transform="matrix(1 0 0 -1 0.882812 10.6154)" fill="#949494"/>
<rect y="1.3269" width="0.441176" height="8.84615" fill="#262626"/>
<rect x="0.441406" y="1.3269" width="0.441176" height="8.84615" fill="#262626"/>
<rect x="0.882812" y="1.3269" width="0.441177" height="8.84615" fill="#999999"/>
<rect x="1.32324" y="9.28845" width="0.441176" height="0.442309" fill="#B8B8B8"/>
<rect x="1.76465" y="9.28845" width="0.441177" height="0.442309" fill="#A0A0A0"/>
<rect x="1.32324" y="9.73071" width="0.441176" height="0.442307" fill="#A0A0A0"/>
<rect x="1.76465" y="9.73071" width="0.441177" height="0.442307" fill="#7C7C7C"/>
<rect x="1.32324" y="10.1731" width="0.441176" height="0.442309" fill="#707070"/>
<rect x="1.76465" y="10.1731" width="0.441177" height="0.442309" fill="#505050"/>
<rect width="0.441176" height="0.442308" transform="matrix(1 0 0 -1 1.32324 2.21155)" fill="#CCCCCC"/>
<rect width="0.441177" height="0.442308" transform="matrix(1 0 0 -1 1.76465 2.21155)" fill="#BBBBBB"/>
<rect width="0.441176" height="0.442308" transform="matrix(1 0 0 -1 1.32324 1.76929)" fill="#DDDDDD"/>
<rect width="0.441177" height="0.442308" transform="matrix(1 0 0 -1 1.76465 1.76929)" fill="#CCCCCC"/>
<rect width="0.441176" height="0.442308" transform="matrix(1 0 0 -1 1.32324 1.3269)" fill="#ACACAC"/>
<rect width="0.441177" height="0.442308" transform="matrix(1 0 0 -1 1.76465 1.3269)" fill="#9F9F9F"/>
<rect x="1.32324" y="2.21155" width="0.441176" height="7.07692" fill="#C3C3C3"/>
<rect x="1.76465" y="2.21155" width="0.441177" height="7.07692" fill="#B2B2B2"/>
<rect x="1.32324" width="6.17647" height="0.884615" fill="#262626"/>
<rect x="1.32324" y="10.6154" width="6.17647" height="0.884616" fill="#262626"/>
<rect x="2.20605" y="0.884644" width="5.29412" height="0.442308" fill="#999999"/>
<rect x="2.20605" y="1.3269" width="5.29412" height="0.442308" fill="#C3C3C3"/>
<rect x="2.20605" y="1.76929" width="5.29412" height="0.442308" fill="#B2B2B2"/>
<rect x="2.20605" y="9.28845" width="5.29412" height="0.442309" fill="#959595"/>
<rect x="2.20605" y="9.73071" width="5.29412" height="0.442307" fill="#6A6A6A"/>
<rect x="2.20605" y="10.1731" width="5.29412" height="0.442309" fill="#404040"/>
<rect width="0.441175" height="0.442308" transform="matrix(-1 0 0 1 14.5586 0)" fill="#B4B4B4"/>
<rect width="0.441175" height="0.442308" transform="matrix(-1 0 0 1 14.5586 0.442261)" fill="#8B8B8B"/>
<rect width="0.441175" height="0.442308" transform="matrix(-1 0 0 1 14.5586 0.884644)" fill="#565656"/>
<rect width="0.441177" height="0.442308" transform="matrix(-1 0 0 1 15 0.442261)" fill="#B4B4B4"/>
<rect width="0.441177" height="0.442308" transform="matrix(-1 0 0 1 15 0.884644)" fill="#616161"/>
<rect width="0.441177" height="0.442308" transform="matrix(-1 0 0 1 14.1172 0)" fill="#616161"/>
<rect width="0.441177" height="0.442308" transform="matrix(-1 0 0 1 14.1172 0.442261)" fill="#565656"/>
<rect width="0.441177" height="0.442308" transform="matrix(-1 0 0 1 14.1172 0.884644)" fill="#949494"/>
<rect x="14.5586" y="11.5" width="0.441175" height="0.442308" transform="rotate(180 14.5586 11.5)" fill="#B4B4B4"/>
<rect x="14.5586" y="11.0577" width="0.441175" height="0.442307" transform="rotate(180 14.5586 11.0577)" fill="#8B8B8B"/>
<rect x="14.5586" y="10.6154" width="0.441175" height="0.442308" transform="rotate(180 14.5586 10.6154)" fill="#565656"/>
<rect x="15" y="11.0577" width="0.441177" height="0.442307" transform="rotate(180 15 11.0577)" fill="#B4B4B4"/>
<rect x="15" y="10.6154" width="0.441177" height="0.442308" transform="rotate(180 15 10.6154)" fill="#616161"/>
<rect x="14.1172" y="11.5" width="0.441177" height="0.442308" transform="rotate(180 14.1172 11.5)" fill="#616161"/>
<rect x="14.1172" y="11.0577" width="0.441177" height="0.442307" transform="rotate(180 14.1172 11.0577)" fill="#565656"/>
<rect x="14.1172" y="10.6154" width="0.441177" height="0.442308" transform="rotate(180 14.1172 10.6154)" fill="#949494"/>
<rect width="0.441177" height="8.84615" transform="matrix(-1 0 0 1 15 1.3269)" fill="#262626"/>
<rect width="0.441175" height="8.84615" transform="matrix(-1 0 0 1 14.5586 1.3269)" fill="#262626"/>
<rect width="0.441177" height="8.84615" transform="matrix(-1 0 0 1 14.1172 1.3269)" fill="#999999"/>
<rect width="0.441175" height="0.442309" transform="matrix(-1 0 0 1 13.6768 9.28845)" fill="#B8B8B8"/>
<rect width="0.441177" height="0.442309" transform="matrix(-1 0 0 1 13.2354 9.28845)" fill="#A0A0A0"/>
<rect width="0.441175" height="0.442307" transform="matrix(-1 0 0 1 13.6768 9.73071)" fill="#A0A0A0"/>
<rect width="0.441177" height="0.442307" transform="matrix(-1 0 0 1 13.2354 9.73071)" fill="#7C7C7C"/>
<rect width="0.441175" height="0.442309" transform="matrix(-1 0 0 1 13.6768 10.1731)" fill="#707070"/>
<rect width="0.441177" height="0.442309" transform="matrix(-1 0 0 1 13.2354 10.1731)" fill="#505050"/>
<rect x="13.6768" y="2.21155" width="0.441175" height="0.442308" transform="rotate(180 13.6768 2.21155)" fill="#CCCCCC"/>
<rect x="13.2354" y="2.21155" width="0.441177" height="0.442308" transform="rotate(180 13.2354 2.21155)" fill="#BBBBBB"/>
<rect x="13.6768" y="1.76929" width="0.441175" height="0.442308" transform="rotate(180 13.6768 1.76929)" fill="#DDDDDD"/>
<rect x="13.2354" y="1.76929" width="0.441177" height="0.442308" transform="rotate(180 13.2354 1.76929)" fill="#CCCCCC"/>
<rect x="13.6768" y="1.3269" width="0.441175" height="0.442308" transform="rotate(180 13.6768 1.3269)" fill="#ACACAC"/>
<rect x="13.2354" y="1.3269" width="0.441177" height="0.442308" transform="rotate(180 13.2354 1.3269)" fill="#9F9F9F"/>
<rect width="0.441175" height="7.07692" transform="matrix(-1 0 0 1 13.6768 2.21155)" fill="#C3C3C3"/>
<rect width="0.441177" height="7.07692" transform="matrix(-1 0 0 1 13.2354 2.21155)" fill="#B2B2B2"/>
<rect width="6.17647" height="0.884615" transform="matrix(-1 0 0 1 13.6768 0)" fill="#262626"/>
<rect width="6.17647" height="0.884616" transform="matrix(-1 0 0 1 13.6768 10.6154)" fill="#262626"/>
<rect width="5.29412" height="0.442308" transform="matrix(-1 0 0 1 12.7939 0.884644)" fill="#999999"/>
<rect width="5.29412" height="0.442308" transform="matrix(-1 0 0 1 12.7939 1.3269)" fill="#C3C3C3"/>
<rect width="5.29412" height="0.442308" transform="matrix(-1 0 0 1 12.7939 1.76929)" fill="#B2B2B2"/>
<rect width="5.29412" height="0.442309" transform="matrix(-1 0 0 1 12.7939 9.28845)" fill="#959595"/>
<rect width="5.29412" height="0.442307" transform="matrix(-1 0 0 1 12.7939 9.73071)" fill="#6A6A6A"/>
<rect width="5.29412" height="0.442309" transform="matrix(-1 0 0 1 12.7939 10.1731)" fill="#404040"/>
<rect x="4.85254" y="3.53845" width="5.73529" height="0.884615" fill="#4C4C4C"/>
<rect x="4.41113" y="3.53845" width="0.441176" height="0.884615" fill="#686868"/>
<rect x="10.5879" y="3.53845" width="0.441175" height="0.884615" fill="#464646"/>
<rect x="11.0293" y="3.53845" width="0.441177" height="0.884615" fill="#5D5D5D"/>
<rect x="11.4707" y="3.53845" width="0.441175" height="0.884615" fill="#909090"/>
<rect x="3.9707" y="3.53845" width="0.441177" height="0.884615" fill="#9F9F9F"/>
<rect x="3.5293" y="3.53845" width="0.441177" height="0.884615" fill="#B7B7B7"/>
<rect x="3.08789" y="3.53845" width="0.441176" height="1.76923" fill="#B7B7B7"/>
<rect x="3.08789" y="2.65381" width="0.441176" height="0.884615" fill="#B7B7B7"/>
<rect x="3.5293" y="4.4231" width="0.882353" height="0.884615" fill="#D0D0D0"/>
<rect x="3.5293" y="3.09607" width="0.882353" height="0.442308" fill="#D0D0D0"/>
<rect x="4.41113" y="4.4231" width="0.441176" height="0.884615" fill="#B0B0B0"/>
<rect x="4.41113" y="3.09607" width="0.441176" height="0.442308" fill="#B0B0B0"/>
<rect x="10.1465" y="4.4231" width="0.441177" height="0.884615" fill="#9B9B9B"/>
<rect x="10.1465" y="3.09607" width="0.441177" height="0.442308" fill="#9B9B9B"/>
<rect x="10.5879" y="4.4231" width="0.441175" height="0.884615" fill="#8E8E8E"/>
<rect x="10.5879" y="3.09607" width="0.441175" height="0.442308" fill="#8E8E8E"/>
<rect x="11.0293" y="4.4231" width="0.441177" height="0.884615" fill="#909090"/>
<rect x="11.0293" y="3.09607" width="0.441177" height="0.442308" fill="#909090"/>
<rect x="11.4707" y="4.4231" width="0.441175" height="0.884615" fill="#A1A1A1"/>
<rect x="11.4707" y="3.09607" width="0.441175" height="0.442308" fill="#A1A1A1"/>
<rect x="4.85254" y="4.4231" width="5.29412" height="0.884615" fill="#A1A1A1"/>
<rect x="4.85254" y="3.09607" width="5.29412" height="0.442308" fill="#A1A1A1"/>
<rect x="4.85254" y="5.30762" width="5.73529" height="0.884614" fill="#4C4C4C"/>
<rect x="4.41113" y="7.0769" width="6.17647" height="0.442307" fill="#4C4C4C"/>
<rect x="4.41113" y="7.51917" width="6.17647" height="0.442309" fill="#464646"/>
<rect x="4.41113" y="5.30762" width="0.441176" height="0.884614" fill="#686868"/>
<rect x="10.5879" y="5.30762" width="0.441175" height="0.884614" fill="#464646"/>
<rect x="10.5879" y="7.0769" width="0.441175" height="0.884615" fill="#464646"/>
<rect x="11.0293" y="5.30762" width="0.441177" height="0.884614" fill="#5D5D5D"/>
<rect x="11.0293" y="7.0769" width="0.441177" height="0.884615" fill="#5D5D5D"/>
<rect x="11.4707" y="5.30762" width="0.441175" height="0.884614" fill="#909090"/>
<rect x="11.4707" y="7.0769" width="0.441175" height="0.884615" fill="#909090"/>
<rect x="3.9707" y="5.30762" width="0.441177" height="0.884614" fill="#9F9F9F"/>
<rect x="3.5293" y="5.30762" width="0.441177" height="0.884614" fill="#B7B7B7"/>
<rect x="3.08789" y="5.30762" width="0.441176" height="2.21154" fill="#B7B7B7"/>
<rect x="3.08789" y="7.51917" width="0.882353" height="0.884615" fill="#B7B7B7"/>
<rect x="3.5293" y="6.19226" width="0.882353" height="0.884616" fill="#D0D0D0"/>
<rect x="4.41113" y="6.19226" width="0.441176" height="0.884616" fill="#B0B0B0"/>
<rect x="10.1465" y="6.19226" width="0.441177" height="0.884616" fill="#9B9B9B"/>
<rect x="10.5879" y="6.19226" width="0.441175" height="0.884616" fill="#8E8E8E"/>
<rect x="11.0293" y="6.19226" width="0.441177" height="0.884616" fill="#909090"/>
<rect x="11.4707" y="6.19226" width="0.441175" height="0.884616" fill="#A1A1A1"/>
<rect x="4.85254" y="6.19226" width="5.29412" height="0.884616" fill="#A1A1A1"/>
<rect x="3.5293" y="2.65381" width="0.441177" height="0.442307" fill="#D0D0D0"/>
<rect x="3.9707" y="2.65381" width="0.441177" height="0.442307" fill="#D7D7D7"/>
<rect x="3.9707" y="3.09607" width="0.441177" height="0.442308" fill="#CECECE"/>
<rect x="3.5293" y="3.09607" width="0.441177" height="0.442308" fill="#D0D0D0"/>
<rect x="4.41113" y="2.65381" width="0.441176" height="0.442307" fill="#CACACA"/>
<rect x="10.1465" y="2.65381" width="0.441177" height="0.442307" fill="#BDBDBD"/>
<rect x="10.5879" y="2.65381" width="0.441175" height="0.442307" fill="#B0B0B0"/>
<rect x="11.0293" y="2.65381" width="0.441177" height="0.442307" fill="#AAAAAA"/>
<rect x="4.85254" y="2.65381" width="5.29412" height="0.442307" fill="#C3C3C3"/>
<rect x="11.4707" y="7.96155" width="0.441175" height="0.442307" fill="#A1A1A1"/>
<rect x="11.0293" y="7.96155" width="0.441177" height="0.442307" fill="#909090"/>
<rect x="3.9707" y="7.96155" width="7.05882" height="0.442307" fill="#888888"/>
<rect x="3.9707" y="7.51917" width="0.441177" height="0.442308" fill="#909090"/>
<rect x="3.9707" y="7.0769" width="0.441177" height="0.442307" fill="#9F9F9F"/>
<rect x="3.5293" y="7.0769" width="0.441177" height="0.442307" fill="#B7B7B7"/>
</svg>
