<svg xmlns="http://www.w3.org/2000/svg" width="9" height="9" viewBox="0 0 9 9" fill="none">
    <rect opacity="0.3" x="2" y="4.13856" width="6" height="1" fill="white" />
    <rect opacity="0.5" y="4.13856" width="2" height="1" fill="white" />
    <rect opacity="0.3" x="2" y="2.13856" width="6" height="1" fill="white" />
    <rect opacity="0.5" y="2.13856" width="2" height="1" fill="white" />
    <rect opacity="0.3" x="2" y="0.138557" width="6" height="1" fill="white" />
    <g style="mix-blend-mode:multiply" opacity="0.5">
        <rect x="2" y="1.13856" width="7" height="1" fill="#262626" />
    </g>
    <g style="mix-blend-mode:multiply" opacity="0.2">
        <rect x="1" y="1.13856" width="1" height="1" fill="#262626" />
    </g>
    <g style="mix-blend-mode:multiply" opacity="0.5">
        <rect x="2" y="5.13856" width="7" height="1" fill="#262626" />
    </g>
    <g style="mix-blend-mode:multiply" opacity="0.2">
        <rect x="1" y="5.13856" width="1" height="1" fill="#262626" />
    </g>
    <g style="mix-blend-mode:multiply" opacity="0.5">
        <rect x="2" y="3.13856" width="7" height="1" fill="#262626" />
    </g>
    <g style="mix-blend-mode:multiply" opacity="0.2">
        <rect x="1" y="3.13856" width="1" height="1" fill="#262626" />
    </g>
    <g style="mix-blend-mode:multiply" opacity="0.5">
        <rect x="2" y="7.13856" width="7" height="1" fill="#262626" />
    </g>
    <g style="mix-blend-mode:multiply" opacity="0.2">
        <rect x="1" y="7.13856" width="1" height="1" fill="#262626" />
    </g>
    <rect opacity="0.5" y="0.138557" width="2" height="1" fill="white" />
    <rect opacity="0.3" x="2" y="6.13856" width="6" height="1" fill="white" />
    <rect opacity="0.5" y="6.13856" width="2" height="1" fill="white" />
</svg>