<svg width="8" height="8" viewBox="0 0 8 8" fill="none" xmlns="http://www.w3.org/2000/svg">
<path d="M0.545052 4.88429L0.582902 4.67439C0.65395 4.2804 1.13615 4.12552 1.42333 4.40446L2.42156 5.37404C2.62162 5.56835 2.94197 5.56143 3.13345 5.35867L6.94655 1.32094C7.10815 1.14982 7.38265 1.15731 7.53468 1.33698C7.65883 1.4837 7.65921 1.69853 7.53558 1.8457L3.14203 7.07543C2.95127 7.3025 2.60593 7.31458 2.39977 7.10139L0.677687 5.3206C0.565865 5.20496 0.516505 5.04259 0.545052 4.88429Z" fill="#000"/>
<path fill-rule="evenodd" clip-rule="evenodd" d="M7.34384 1.49847C7.28812 1.43262 7.18753 1.42988 7.12831 1.49259L3.31522 5.53032C3.02799 5.83447 2.54746 5.84484 2.24738 5.55337L1.24915 4.58379C1.10556 4.44432 0.864461 4.52176 0.828937 4.71876L0.791087 4.92865C0.776814 5.00781 0.801494 5.08899 0.857405 5.14681L2.57949 6.9276C2.68257 7.0342 2.85524 7.02816 2.95062 6.91462L7.34416 1.68489C7.38947 1.63096 7.38933 1.55223 7.34384 1.49847ZM6.76479 1.14929C7.02877 0.869764 7.47718 0.881994 7.72553 1.17549C7.92834 1.41518 7.92896 1.76611 7.727 2.00651L3.33345 7.23624C3.04731 7.57685 2.5293 7.59496 2.22006 7.27518L0.497976 5.49439C0.330243 5.32094 0.256204 5.07738 0.299024 4.83992L0.336873 4.63003C0.443445 4.03903 1.16675 3.80672 1.59752 4.22513L2.59575 5.19471C2.69578 5.29186 2.85595 5.28841 2.9517 5.18702L6.76479 1.14929Z" fill="#000"/>
</svg>
