<svg width="16" height="26" viewBox="0 0 16 26" fill="none" xmlns="http://www.w3.org/2000/svg">
<rect x="0.5" y="0.5" width="15" height="25" stroke="#262626"/>
<g filter="url(#filter0_diiii_205_2588)">
<rect x="1" y="1" width="14" height="24" fill="#808080"/>
<rect x="1.5" y="1.5" width="13" height="23" stroke="#262626"/>
<path fill-rule="evenodd" clip-rule="evenodd" d="M7 10.5H6.5V11V17H7V11H13V10.5H7Z" fill="#31316A"/>
<path fill-rule="evenodd" clip-rule="evenodd" d="M7.5 11H7V11.5V17H7.5V11.5H13V11H7.5Z" fill="#43437B"/>
<path fill-rule="evenodd" clip-rule="evenodd" d="M12.5 17L13 17L13 16.5L13 11.5L12.5 11.5L12.5 16.5L7.5 16.5L7.5 17L12.5 17Z" fill="#686868"/>
<path fill-rule="evenodd" clip-rule="evenodd" d="M12 16.5L12.5 16.5L12.5 16L12.5 11.5L12 11.5L12 16L7.5 16L7.5 16.5L12 16.5Z" fill="#686868"/>
<path fill-rule="evenodd" clip-rule="evenodd" d="M11.5 16L12 16L12 15.5L12 11.5L11.5 11.5L11.5 15.5L7.5 15.5L7.5 16L11.5 16Z" fill="#393939"/>
<path fill-rule="evenodd" clip-rule="evenodd" d="M11 15.5L11.5 15.5L11.5 15L11.5 11.5L11 11.5L11 15L7.5 15L7.5 15.5L11 15.5Z" fill="#2A2A2A"/>
<path fill-rule="evenodd" clip-rule="evenodd" d="M10.5 15L11 15L11 14.5L11 11.5L10.5 11.5L10.5 14.5L7.5 14.5L7.5 15L10.5 15Z" fill="#3B3B3B"/>
<path fill-rule="evenodd" clip-rule="evenodd" d="M6.5 10H6V10.5V17H6.5V10.5H13V10H6.5Z" fill="#31316A"/>
<path fill-rule="evenodd" clip-rule="evenodd" d="M6 9.5H5.5V10V17H6V10H13V9.5H6Z" fill="#2C2C3F"/>
<path fill-rule="evenodd" clip-rule="evenodd" d="M5.5 9H5V9.5V17H5.5V9.5H13V9H5.5Z" fill="#3F3F3F"/>
<rect x="7.5" y="11.5" width="3" height="3" fill="#444444"/>
</g>
<defs>
<filter id="filter0_diiii_205_2588" x="1" y="1" width="15" height="25" filterUnits="userSpaceOnUse" color-interpolation-filters="sRGB">
<feFlood flood-opacity="0" result="BackgroundImageFix"/>
<feColorMatrix in="SourceAlpha" type="matrix" values="0 0 0 0 0 0 0 0 0 0 0 0 0 0 0 0 0 0 127 0" result="hardAlpha"/>
<feOffset dx="1" dy="1"/>
<feColorMatrix type="matrix" values="0 0 0 0 0.14902 0 0 0 0 0.14902 0 0 0 0 0.14902 0 0 0 1 0"/>
<feBlend mode="normal" in2="BackgroundImageFix" result="effect1_dropShadow_205_2588"/>
<feBlend mode="normal" in="SourceGraphic" in2="effect1_dropShadow_205_2588" result="shape"/>
<feColorMatrix in="SourceAlpha" type="matrix" values="0 0 0 0 0 0 0 0 0 0 0 0 0 0 0 0 0 0 127 0" result="hardAlpha"/>
<feOffset dy="2"/>
<feComposite in2="hardAlpha" operator="arithmetic" k2="-1" k3="1"/>
<feColorMatrix type="matrix" values="0 0 0 0 0.25098 0 0 0 0 0.25098 0 0 0 0 0.25098 0 0 0 1 0"/>
<feBlend mode="normal" in2="shape" result="effect2_innerShadow_205_2588"/>
<feColorMatrix in="SourceAlpha" type="matrix" values="0 0 0 0 0 0 0 0 0 0 0 0 0 0 0 0 0 0 127 0" result="hardAlpha"/>
<feOffset dx="2"/>
<feComposite in2="hardAlpha" operator="arithmetic" k2="-1" k3="1"/>
<feColorMatrix type="matrix" values="0 0 0 0 0.25098 0 0 0 0 0.25098 0 0 0 0 0.25098 0 0 0 1 0"/>
<feBlend mode="normal" in2="effect2_innerShadow_205_2588" result="effect3_innerShadow_205_2588"/>
<feColorMatrix in="SourceAlpha" type="matrix" values="0 0 0 0 0 0 0 0 0 0 0 0 0 0 0 0 0 0 127 0" result="hardAlpha"/>
<feOffset dy="-2"/>
<feComposite in2="hardAlpha" operator="arithmetic" k2="-1" k3="1"/>
<feColorMatrix type="matrix" values="0 0 0 0 0.752941 0 0 0 0 0.752941 0 0 0 0 0.752941 0 0 0 1 0"/>
<feBlend mode="normal" in2="effect3_innerShadow_205_2588" result="effect4_innerShadow_205_2588"/>
<feColorMatrix in="SourceAlpha" type="matrix" values="0 0 0 0 0 0 0 0 0 0 0 0 0 0 0 0 0 0 127 0" result="hardAlpha"/>
<feOffset dx="-2"/>
<feComposite in2="hardAlpha" operator="arithmetic" k2="-1" k3="1"/>
<feColorMatrix type="matrix" values="0 0 0 0 0.752941 0 0 0 0 0.752941 0 0 0 0 0.752941 0 0 0 1 0"/>
<feBlend mode="normal" in2="effect4_innerShadow_205_2588" result="effect5_innerShadow_205_2588"/>
</filter>
</defs>
</svg>
