<svg width="17" height="26" viewBox="0 0 17 26" fill="none" xmlns="http://www.w3.org/2000/svg">
<path fill-rule="evenodd" clip-rule="evenodd" d="M2.125 3.25H9.03125V22.2083H2.125V3.25ZM9.03125 3.79167H10.0938L10.0938 4.33333H11.1562L11.1562 5.41667H12.2187V8.66667L12.2188 6.5H13.2813L13.2812 7.58333H14.3438V8.66667H15.4063V17.3333H14.3438V18.4167H13.2812L13.2813 19.5H12.2188L12.2187 17.3333V20.5833H11.1562L11.1562 21.6667H10.0938L10.0938 22.2083H9.03125L9.03125 17.3333V8.66667L9.03125 3.79167Z" fill="#666666"/>
<rect x="6.90625" y="23.8334" width="0.53125" height="0.541666" fill="#484848"/>
<rect x="7.4375" y="23.8334" width="0.53125" height="0.541666" fill="#2F2F2F"/>
<rect x="1.0625" y="23.8334" width="0.53125" height="0.541666" fill="#666666"/>
<rect x="0.53125" y="23.8334" width="0.53125" height="0.541666" fill="#6A6A6A"/>
<rect x="6.90625" y="23.8334" width="0.53125" height="0.541666" fill="#484848"/>
<rect x="1.59375" y="23.8334" width="5.3125" height="0.541666" fill="#555555"/>
<rect x="6.90625" y="23.2917" width="0.53125" height="0.541668" fill="#484848"/>
<rect x="7.4375" y="23.2917" width="0.53125" height="0.541668" fill="#6A6A6A"/>
<rect x="7.96875" y="23.2917" width="0.53125" height="0.541668" fill="#999999"/>
<rect x="1.0625" y="23.2917" width="0.53125" height="0.541668" fill="#6A6A6A"/>
<rect x="0.53125" y="23.2917" width="0.53125" height="0.541668" fill="#6A6A6A"/>
<rect x="6.90625" y="23.2917" width="0.53125" height="0.541668" fill="#737373"/>
<rect x="1.59375" y="23.2917" width="5.3125" height="0.541668" fill="#6A6A6A"/>
<rect x="6.90625" y="22.75" width="0.53125" height="0.541666" fill="#484848"/>
<rect x="7.4375" y="22.75" width="0.53125" height="0.541666" fill="#6A6A6A"/>
<rect x="7.96875" y="22.75" width="0.53125" height="0.541666" fill="#999999"/>
<rect x="7.96875" y="22.75" width="0.53125" height="0.541666" fill="#6A6A6A"/>
<rect x="8.5" y="22.75" width="0.53125" height="0.541666" fill="#999999"/>
<rect x="1.0625" y="22.75" width="0.53125" height="0.541666" fill="#6A6A6A"/>
<rect x="0.53125" y="22.75" width="0.53125" height="0.541666" fill="#6A6A6A"/>
<rect x="6.90625" y="22.75" width="0.53125" height="0.541666" fill="#6A6A6A"/>
<rect x="1.59375" y="22.75" width="5.3125" height="0.541666" fill="#6A6A6A"/>
<rect x="6.90625" y="22.2084" width="0.53125" height="0.541666" fill="#484848"/>
<rect x="7.4375" y="22.2084" width="0.53125" height="0.541666" fill="#6A6A6A"/>
<rect x="7.96875" y="22.2084" width="0.53125" height="0.541666" fill="#999999"/>
<rect x="7.96875" y="22.2084" width="0.53125" height="0.541666" fill="#6A6A6A"/>
<rect x="8.5" y="22.2084" width="0.53125" height="0.541666" fill="#6A6A6A"/>
<rect x="9.03125" y="22.2084" width="0.531249" height="0.541666" fill="#999999"/>
<rect x="1.0625" y="22.2084" width="0.53125" height="0.541666" fill="#6A6A6A"/>
<rect x="2.125" y="22.2084" width="0.53125" height="0.541666" fill="#6A6A6A"/>
<rect x="1.59375" y="22.2084" width="0.53125" height="0.541666" fill="#6A6A6A"/>
<rect x="0.53125" y="22.2084" width="0.53125" height="0.541666" fill="#6A6A6A"/>
<rect x="6.90625" y="22.2084" width="0.53125" height="0.541666" fill="#6A6A6A"/>
<rect x="2.65625" y="22.2084" width="4.25" height="0.541666" fill="#6A6A6A"/>
<rect x="3.1875" y="5.41663" width="1.0625" height="1.08333" fill="#565656"/>
<rect x="3.1875" y="9.75" width="1.0625" height="1.08333" fill="#565656"/>
<rect x="3.1875" y="14.0834" width="1.0625" height="1.08333" fill="#565656"/>
<rect x="3.1875" y="18.4166" width="1.0625" height="1.08333" fill="#565656"/>
<rect x="6.375" y="16.25" width="1.0625" height="1.08333" fill="#565656"/>
<rect x="6.375" y="11.9166" width="1.0625" height="1.08333" fill="#565656"/>
<rect x="6.375" y="7.58337" width="1.0625" height="1.08333" fill="#565656"/>
<rect x="5.3125" y="6.5" width="1.0625" height="1.08333" fill="#8B8B8B"/>
<rect x="5.3125" y="10.8334" width="1.0625" height="1.08333" fill="#8B8B8B"/>
<rect x="5.3125" y="15.1666" width="1.0625" height="1.08333" fill="#8B8B8B"/>
<rect x="2.125" y="17.3334" width="1.0625" height="1.08333" fill="#8B8B8B"/>
<rect x="2.125" y="13" width="1.0625" height="1.08333" fill="#8B8B8B"/>
<rect x="2.125" y="8.66663" width="1.0625" height="1.08333" fill="#8B8B8B"/>
<rect x="2.125" y="4.33337" width="1.0625" height="1.08333" fill="#8B8B8B"/>
<rect width="7.96875" height="1.08333" fill="#262626"/>
<rect x="7.96875" y="1.08337" width="1.0625" height="1.08333" fill="#262626"/>
<rect x="9.03125" y="2.16663" width="1.0625" height="1.08333" fill="#262626"/>
<rect x="10.0938" y="3.25" width="1.0625" height="1.08333" fill="#262626"/>
<rect x="11.1562" y="4.33337" width="1.0625" height="1.08333" fill="#262626"/>
<rect x="12.2188" y="5.41663" width="1.0625" height="1.08333" fill="#262626"/>
<rect x="13.2812" y="6.5" width="1.0625" height="1.08333" fill="#262626"/>
<rect x="14.3438" y="7.58337" width="1.0625" height="1.08333" fill="#262626"/>
<rect x="14.3438" y="17.3334" width="1.0625" height="1.08333" fill="#262626"/>
<rect x="13.2812" y="18.4166" width="1.0625" height="1.08333" fill="#262626"/>
<rect x="12.2188" y="19.5" width="1.0625" height="1.08333" fill="#262626"/>
<rect x="11.1562" y="20.5834" width="1.0625" height="1.08333" fill="#262626"/>
<rect x="10.0938" y="21.6666" width="1.0625" height="1.08333" fill="#262626"/>
<rect x="9.03125" y="22.75" width="1.0625" height="1.08333" fill="#262626"/>
<rect x="7.96875" y="23.8334" width="1.0625" height="1.08333" fill="#262626"/>
<rect x="15.4062" y="8.66663" width="1.59375" height="1.08333" fill="#262626"/>
<rect x="15.4062" y="16.25" width="1.59375" height="1.08333" fill="#262626"/>
<rect y="24.9166" width="7.96875" height="1.08333" fill="#262626"/>
<rect x="15.9375" y="9.75" width="1.0625" height="7.04167" fill="#262626"/>
<rect y="1.08337" width="7.4375" height="0.541667" fill="#999999"/>
<rect x="0.53125" y="1.625" width="6.90625" height="0.541667" fill="#454545"/>
<rect x="1.0625" y="2.16663" width="6.90625" height="0.541667" fill="#454545"/>
<rect x="1.59375" y="2.70837" width="6.90625" height="0.541667" fill="#454545"/>
<rect x="7.4375" y="1.625" width="0.53125" height="0.541667" fill="#999999"/>
<rect x="7.4375" y="1.08337" width="0.53125" height="0.541667" fill="#666666"/>
<rect x="8.5" y="2.16663" width="0.53125" height="0.541667" fill="#666666"/>
<rect x="9.5625" y="3.25" width="0.53125" height="0.541667" fill="#666666"/>
<rect x="10.625" y="4.33337" width="0.531249" height="0.541667" fill="#666666"/>
<rect x="11.6875" y="5.41663" width="0.53125" height="0.541667" fill="#666666"/>
<rect x="12.75" y="6.5" width="0.53125" height="0.541667" fill="#666666"/>
<rect x="13.8125" y="7.58337" width="0.53125" height="0.541667" fill="#666666"/>
<rect x="14.875" y="8.66663" width="0.53125" height="0.541666" fill="#666666"/>
<rect x="7.96875" y="2.16663" width="0.53125" height="0.541667" fill="#999999"/>
<rect x="8.5" y="2.70837" width="0.53125" height="0.541667" fill="#999999"/>
<rect x="9.03125" y="3.25" width="0.53125" height="0.541667" fill="#999999"/>
<rect x="9.5625" y="3.79163" width="0.53125" height="0.541667" fill="#999999"/>
<rect x="10.0938" y="4.33337" width="0.53125" height="0.541667" fill="#999999"/>
<rect x="10.625" y="4.875" width="0.531249" height="0.541667" fill="#999999"/>
<rect x="11.1562" y="5.41663" width="0.53125" height="0.541667" fill="#999999"/>
<rect x="11.6875" y="5.95837" width="0.53125" height="0.541667" fill="#999999"/>
<rect x="12.2188" y="6.5" width="0.531249" height="0.541667" fill="#999999"/>
<rect x="12.75" y="7.04163" width="0.53125" height="0.541666" fill="#999999"/>
<rect x="13.2812" y="7.58337" width="0.53125" height="0.541667" fill="#999999"/>
<rect x="13.8125" y="8.125" width="0.53125" height="0.541667" fill="#999999"/>
<rect x="14.3438" y="8.66663" width="0.531249" height="0.541666" fill="#999999"/>
<rect x="14.875" y="9.20837" width="0.53125" height="0.541667" fill="#999999"/>
<rect x="14.875" y="16.25" width="0.53125" height="0.541666" fill="#999999"/>
<rect x="14.875" y="16.7916" width="0.53125" height="0.541668" fill="#333333"/>
<rect x="13.8125" y="17.875" width="0.53125" height="0.541666" fill="#333333"/>
<rect x="12.75" y="18.9584" width="0.53125" height="0.541666" fill="#333333"/>
<rect x="11.6875" y="20.0416" width="0.53125" height="0.541668" fill="#333333"/>
<rect x="10.625" y="21.125" width="0.531249" height="0.541666" fill="#333333"/>
<rect x="9.5625" y="22.2084" width="0.53125" height="0.541666" fill="#333333"/>
<rect x="8.5" y="23.2916" width="0.53125" height="0.541668" fill="#333333"/>
<rect x="14.3438" y="16.7916" width="0.531249" height="0.541668" fill="#999999"/>
<rect x="13.8125" y="17.3334" width="0.53125" height="0.541666" fill="#999999"/>
<rect x="13.2812" y="17.875" width="0.53125" height="0.541666" fill="#999999"/>
<rect x="12.75" y="18.4166" width="0.53125" height="0.541668" fill="#999999"/>
<rect x="12.2188" y="18.9584" width="0.531249" height="0.541666" fill="#999999"/>
<rect x="11.6875" y="19.5" width="0.53125" height="0.541666" fill="#999999"/>
<rect x="11.1562" y="20.0416" width="0.53125" height="0.541668" fill="#999999"/>
<rect x="10.625" y="20.5834" width="0.531249" height="0.541666" fill="#999999"/>
<rect x="10.0938" y="21.125" width="0.53125" height="0.541666" fill="#999999"/>
<rect x="9.5625" y="21.6666" width="0.53125" height="0.541668" fill="#999999"/>
<rect x="9.03125" y="22.2084" width="0.53125" height="0.541666" fill="#999999"/>
<rect x="8.5" y="22.75" width="0.53125" height="0.541666" fill="#999999"/>
<rect x="7.96875" y="23.2916" width="0.53125" height="0.541668" fill="#999999"/>
<rect x="1.59375" y="24.375" width="6.375" height="0.541666" fill="#333333"/>
<rect x="1.0625" y="24.375" width="0.53125" height="0.541666" fill="#404040"/>
<rect x="0.53125" y="24.375" width="0.53125" height="0.541666" fill="#595959"/>
<rect y="24.375" width="0.53125" height="0.541666" fill="#4C4C4C"/>
<rect y="23.8334" width="0.53125" height="0.541666" fill="#737373"/>
<rect y="23.2916" width="0.53125" height="0.541668" fill="#8C8C8C"/>
<rect x="15.4062" y="9.75" width="0.531249" height="6.5" fill="#666666"/>
<rect x="13.8125" y="9.75" width="0.53125" height="6.5" fill="#666666"/>
<rect x="9.03125" y="8.125" width="0.53125" height="9.75" fill="#666666"/>
<rect x="14.3438" y="10.8334" width="0.531249" height="4.33333" fill="#999999"/>
<rect y="1.08337" width="0.53125" height="22.2083" fill="#999999"/>
<rect x="0.53125" y="1.625" width="0.53125" height="20.5833" fill="#454545"/>
<rect x="1.0625" y="2.16663" width="0.53125" height="20.0417" fill="#454545"/>
<rect x="1.59375" y="2.70837" width="0.53125" height="19.5" fill="#454545"/>
<rect x="7.96875" y="0.541626" width="0.53125" height="0.541667" fill="#333333"/>
<rect x="9.03125" y="1.625" width="0.53125" height="0.541667" fill="#333333"/>
<rect x="10.0938" y="2.70837" width="0.53125" height="0.541667" fill="#333333"/>
<rect x="11.1562" y="3.79163" width="0.53125" height="0.541667" fill="#333333"/>
<rect x="12.2188" y="4.875" width="0.531249" height="0.541667" fill="#333333"/>
<rect x="13.2812" y="5.95837" width="0.53125" height="0.541667" fill="#333333"/>
<rect x="14.3438" y="7.04163" width="0.531249" height="0.541666" fill="#333333"/>
<rect x="15.4062" y="8.125" width="0.531249" height="0.541667" fill="#333333"/>
<rect x="15.4062" y="17.3334" width="0.531249" height="0.541666" fill="#333333"/>
<rect x="14.3438" y="18.4166" width="0.531249" height="0.541668" fill="#333333"/>
<rect x="13.2812" y="19.5" width="0.53125" height="0.541666" fill="#333333"/>
<rect x="12.2188" y="20.5834" width="0.531249" height="0.541666" fill="#333333"/>
<rect x="11.1562" y="21.6666" width="0.53125" height="0.541668" fill="#333333"/>
<rect x="10.0938" y="22.75" width="0.53125" height="0.541666" fill="#333333"/>
<rect x="9.03125" y="23.8334" width="0.53125" height="0.541666" fill="#333333"/>
<rect x="7.96875" y="24.9166" width="0.53125" height="0.541668" fill="#333333"/>
<path fill-rule="evenodd" clip-rule="evenodd" d="M4.25 17.875H3.1875V18.4167H4.25V19.5H3.1875V20.0417H4.25V19.5H4.78125V18.4167H4.25V17.875ZM2.65625 18.4167V19.5H3.1875L3.1875 18.4167H2.65625Z" fill="#727272"/>
<path fill-rule="evenodd" clip-rule="evenodd" d="M4.25 13.5416H3.1875V14.0833H4.25V15.1666H3.1875V15.7083H4.25V15.1666H4.78125V14.0833H4.25V13.5416ZM2.65625 14.0833V15.1666H3.1875L3.1875 14.0833H2.65625Z" fill="#727272"/>
<path fill-rule="evenodd" clip-rule="evenodd" d="M4.25 9.20837H3.1875V9.75004H4.25V10.8334H3.1875V11.375H4.25V10.8334H4.78125V9.75004H4.25V9.20837ZM2.65625 9.75004V10.8334H3.1875L3.1875 9.75004H2.65625Z" fill="#727272"/>
<path fill-rule="evenodd" clip-rule="evenodd" d="M4.25 4.875H3.1875V5.41667H4.25V6.5H3.1875V7.04167H4.25V6.5H4.78125V5.41667H4.25V4.875ZM2.65625 5.41667V6.5H3.1875L3.1875 5.41667H2.65625Z" fill="#727272"/>
<path fill-rule="evenodd" clip-rule="evenodd" d="M7.4375 7.04163H6.375V7.58329H7.4375V8.66663H6.375V9.20829H7.4375V8.66663H7.96875V7.58329H7.4375V7.04163ZM5.84375 7.58329V8.66663H6.375L6.375 7.58329H5.84375Z" fill="#727272"/>
<path fill-rule="evenodd" clip-rule="evenodd" d="M7.4375 11.375H6.375V11.9167H7.4375V13H6.375V13.5417H7.4375V13H7.96875V11.9167H7.4375V11.375ZM5.84375 11.9167V13H6.375L6.375 11.9167H5.84375Z" fill="#727272"/>
<path fill-rule="evenodd" clip-rule="evenodd" d="M7.4375 15.7084H6.375V16.25H7.4375V17.3334H6.375V17.875H7.4375V17.3334H7.96875V16.25H7.4375V15.7084ZM5.84375 16.25V17.3334H6.375L6.375 16.25H5.84375Z" fill="#727272"/>
<path fill-rule="evenodd" clip-rule="evenodd" d="M11.6875 7.58337H9.5625V8.12504V8.66671V17.3334V17.875V18.4167H11.6875V17.3334H10.625V8.66671H11.6875V7.58337ZM12.75 8.66671H11.6875V9.75004H12.75L12.75 16.25H11.6875V17.3334H12.75V16.25H13.8125V9.75004H12.75V8.66671Z" fill="#262626"/>
<path fill-rule="evenodd" clip-rule="evenodd" d="M11.6875 8.66675H10.625V17.3334H11.6875L11.6875 16.2501H12.75V9.75008H11.6875V8.66675Z" fill="#666666"/>
</svg>
