<svg width="17" height="26" viewBox="0 0 17 26" fill="none" xmlns="http://www.w3.org/2000/svg">
<rect x="0.5" y="0.5" width="16" height="25" stroke="#262626"/>
<g filter="url(#filter0_diiii_205_2585)">
<rect x="1" y="1" width="15" height="24" fill="#808080"/>
<rect x="1.5" y="1.5" width="14" height="23" stroke="#262626"/>
<path fill-rule="evenodd" clip-rule="evenodd" d="M9.5 8.5H10.5V9.5V10.5H12.5H13.5V11.5V15.5V16.5H12.5H10.5V17.5V18.5H9.5V17.5H8.5V16.5H9.5V15.5H12.5V11.5H9.5V10.5H8.5V9.5H9.5V8.5ZM7.5 11.5V10.5H8.5V11.5H7.5ZM6.5 12.5V11.5H7.5V12.5H6.5ZM6.5 14.5H5.5V12.5H6.5V14.5ZM7.5 15.5H6.5V14.5H7.5V15.5ZM7.5 15.5V16.5H8.5V15.5H7.5Z" fill="#5C5C5C"/>
<path fill-rule="evenodd" clip-rule="evenodd" d="M9.5 10.5H8.5V11.5H7.5V12.5H6.5V14.5H7.5V15.5H8.5V16.5H9.5V15.5H12.5V11.5H9.5V10.5Z" fill="#999999"/>
<g style="mix-blend-mode:darken">
<path fill-rule="evenodd" clip-rule="evenodd" d="M10.5 8H10V8.5H10.5V8ZM9 9H9.5V9.5H9V9ZM8.5 10H8V10.5H8.5V11H9H9.5V10.5H9H8.5V10ZM7.5 11H7V11.5H7.5V12H8V11.5H7.5V11ZM6.5 12H6V12.5H6.5V13H7V12.5H6.5V12ZM5 13H5.5V13.5V14H5V13.5V13ZM6 14.5H6.5V15H6V14.5ZM6.5 14.5H7V14H6.5V14.5ZM7.5 15.5H7V16H7.5V15.5ZM7.5 15.5V15H8V15.5H7.5ZM8 16.5H8.5V17H8V16.5ZM8.5 16.5V16H9H9.5V16.5H9H8.5ZM12 15H12.5V15.5H12V15ZM12.5 11.5H12V12H12.5V11.5ZM9 17.5H9.5V18H9V17.5ZM10.5 18.5H10V19H10.5V18.5ZM10.5 16.5H11V17H10.5V16.5ZM10.5 10H11V10.5H10.5V10ZM14 11H13.5V16H14V11Z" fill="#9A9A9A"/>
</g>
</g>
<defs>
<filter id="filter0_diiii_205_2585" x="1" y="1" width="16" height="25" filterUnits="userSpaceOnUse" color-interpolation-filters="sRGB">
<feFlood flood-opacity="0" result="BackgroundImageFix"/>
<feColorMatrix in="SourceAlpha" type="matrix" values="0 0 0 0 0 0 0 0 0 0 0 0 0 0 0 0 0 0 127 0" result="hardAlpha"/>
<feOffset dx="1" dy="1"/>
<feColorMatrix type="matrix" values="0 0 0 0 0.14902 0 0 0 0 0.14902 0 0 0 0 0.14902 0 0 0 1 0"/>
<feBlend mode="normal" in2="BackgroundImageFix" result="effect1_dropShadow_205_2585"/>
<feBlend mode="normal" in="SourceGraphic" in2="effect1_dropShadow_205_2585" result="shape"/>
<feColorMatrix in="SourceAlpha" type="matrix" values="0 0 0 0 0 0 0 0 0 0 0 0 0 0 0 0 0 0 127 0" result="hardAlpha"/>
<feOffset dy="2"/>
<feComposite in2="hardAlpha" operator="arithmetic" k2="-1" k3="1"/>
<feColorMatrix type="matrix" values="0 0 0 0 0.25098 0 0 0 0 0.25098 0 0 0 0 0.25098 0 0 0 1 0"/>
<feBlend mode="normal" in2="shape" result="effect2_innerShadow_205_2585"/>
<feColorMatrix in="SourceAlpha" type="matrix" values="0 0 0 0 0 0 0 0 0 0 0 0 0 0 0 0 0 0 127 0" result="hardAlpha"/>
<feOffset dx="2"/>
<feComposite in2="hardAlpha" operator="arithmetic" k2="-1" k3="1"/>
<feColorMatrix type="matrix" values="0 0 0 0 0.25098 0 0 0 0 0.25098 0 0 0 0 0.25098 0 0 0 1 0"/>
<feBlend mode="normal" in2="effect2_innerShadow_205_2585" result="effect3_innerShadow_205_2585"/>
<feColorMatrix in="SourceAlpha" type="matrix" values="0 0 0 0 0 0 0 0 0 0 0 0 0 0 0 0 0 0 127 0" result="hardAlpha"/>
<feOffset dy="-2"/>
<feComposite in2="hardAlpha" operator="arithmetic" k2="-1" k3="1"/>
<feColorMatrix type="matrix" values="0 0 0 0 0.752941 0 0 0 0 0.752941 0 0 0 0 0.752941 0 0 0 1 0"/>
<feBlend mode="normal" in2="effect3_innerShadow_205_2585" result="effect4_innerShadow_205_2585"/>
<feColorMatrix in="SourceAlpha" type="matrix" values="0 0 0 0 0 0 0 0 0 0 0 0 0 0 0 0 0 0 127 0" result="hardAlpha"/>
<feOffset dx="-2"/>
<feComposite in2="hardAlpha" operator="arithmetic" k2="-1" k3="1"/>
<feColorMatrix type="matrix" values="0 0 0 0 0.752941 0 0 0 0 0.752941 0 0 0 0 0.752941 0 0 0 1 0"/>
<feBlend mode="normal" in2="effect4_innerShadow_205_2585" result="effect5_innerShadow_205_2585"/>
</filter>
</defs>
</svg>
