<svg width="17" height="26" viewBox="0 0 17 26" fill="none" xmlns="http://www.w3.org/2000/svg">
<rect x="0.5" y="0.5" width="16" height="25" stroke="#262626"/>
<g filter="url(#filter0_diiii_205_2591)">
<rect x="1" y="1" width="15" height="24" fill="#808080"/>
<rect x="1.5" y="1.5" width="14" height="23" stroke="#262626"/>
<path fill-rule="evenodd" clip-rule="evenodd" d="M9.5 18.5L8.5 18.5L8.5 17.5L8.5 16.5L6.5 16.5L5.5 16.5L5.5 15.5L5.5 11.5L5.5 10.5L6.5 10.5L8.5 10.5L8.5 9.5L8.5 8.5L9.5 8.5L9.5 9.5L10.5 9.5L10.5 10.5L9.5 10.5L9.5 11.5L6.5 11.5L6.5 15.5L9.5 15.5L9.5 16.5L10.5 16.5L10.5 17.5L9.5 17.5L9.5 18.5ZM11.5 15.5L11.5 16.5L10.5 16.5L10.5 15.5L11.5 15.5ZM12.5 14.5L12.5 15.5L11.5 15.5L11.5 14.5L12.5 14.5ZM12.5 12.5L13.5 12.5L13.5 14.5L12.5 14.5L12.5 12.5ZM11.5 11.5L12.5 11.5L12.5 12.5L11.5 12.5L11.5 11.5ZM11.5 11.5L11.5 10.5L10.5 10.5L10.5 11.5L11.5 11.5Z" fill="#5C5C5C"/>
<path fill-rule="evenodd" clip-rule="evenodd" d="M9.5 16.5L10.5 16.5L10.5 15.5L11.5 15.5L11.5 14.5L12.5 14.5L12.5 12.5L11.5 12.5L11.5 11.5L10.5 11.5L10.5 10.5L9.5 10.5L9.5 11.5L6.5 11.5L6.5 15.5L9.5 15.5L9.5 16.5Z" fill="#999999"/>
<g style="mix-blend-mode:darken">
<path fill-rule="evenodd" clip-rule="evenodd" d="M8.5 19L9 19L9 18.5L8.5 18.5L8.5 19ZM10 18L9.5 18L9.5 17.5L10 17.5L10 18ZM10.5 17L11 17L11 16.5L10.5 16.5L10.5 16L10 16L9.5 16L9.5 16.5L10 16.5L10.5 16.5L10.5 17ZM11.5 16L12 16L12 15.5L11.5 15.5L11.5 15L11 15L11 15.5L11.5 15.5L11.5 16ZM12.5 15L13 15L13 14.5L12.5 14.5L12.5 14L12 14L12 14.5L12.5 14.5L12.5 15ZM14 14L13.5 14L13.5 13.5L13.5 13L14 13L14 13.5L14 14ZM13 12.5L12.5 12.5L12.5 12L13 12L13 12.5ZM12.5 12.5L12 12.5L12 13L12.5 13L12.5 12.5ZM11.5 11.5L12 11.5L12 11L11.5 11L11.5 11.5ZM11.5 11.5L11.5 12L11 12L11 11.5L11.5 11.5ZM11 10.5L10.5 10.5L10.5 10L11 10L11 10.5ZM10.5 10.5L10.5 11L10 11L9.5 11L9.5 10.5L10 10.5L10.5 10.5ZM7 12L6.5 12L6.5 11.5L7 11.5L7 12ZM6.5 15.5L7 15.5L7 15L6.5 15L6.5 15.5ZM10 9.5L9.5 9.5L9.5 9L10 9L10 9.5ZM8.5 8.5L9 8.5L9 8L8.5 8L8.5 8.5ZM8.5 10.5L8 10.5L8 10L8.5 10L8.5 10.5ZM8.5 17L8 17L8 16.5L8.5 16.5L8.5 17ZM5 16L5.5 16L5.5 11L5 11L5 16Z" fill="#9A9A9A"/>
</g>
</g>
<defs>
<filter id="filter0_diiii_205_2591" x="1" y="1" width="16" height="25" filterUnits="userSpaceOnUse" color-interpolation-filters="sRGB">
<feFlood flood-opacity="0" result="BackgroundImageFix"/>
<feColorMatrix in="SourceAlpha" type="matrix" values="0 0 0 0 0 0 0 0 0 0 0 0 0 0 0 0 0 0 127 0" result="hardAlpha"/>
<feOffset dx="1" dy="1"/>
<feColorMatrix type="matrix" values="0 0 0 0 0.14902 0 0 0 0 0.14902 0 0 0 0 0.14902 0 0 0 1 0"/>
<feBlend mode="normal" in2="BackgroundImageFix" result="effect1_dropShadow_205_2591"/>
<feBlend mode="normal" in="SourceGraphic" in2="effect1_dropShadow_205_2591" result="shape"/>
<feColorMatrix in="SourceAlpha" type="matrix" values="0 0 0 0 0 0 0 0 0 0 0 0 0 0 0 0 0 0 127 0" result="hardAlpha"/>
<feOffset dy="2"/>
<feComposite in2="hardAlpha" operator="arithmetic" k2="-1" k3="1"/>
<feColorMatrix type="matrix" values="0 0 0 0 0.25098 0 0 0 0 0.25098 0 0 0 0 0.25098 0 0 0 1 0"/>
<feBlend mode="normal" in2="shape" result="effect2_innerShadow_205_2591"/>
<feColorMatrix in="SourceAlpha" type="matrix" values="0 0 0 0 0 0 0 0 0 0 0 0 0 0 0 0 0 0 127 0" result="hardAlpha"/>
<feOffset dx="2"/>
<feComposite in2="hardAlpha" operator="arithmetic" k2="-1" k3="1"/>
<feColorMatrix type="matrix" values="0 0 0 0 0.25098 0 0 0 0 0.25098 0 0 0 0 0.25098 0 0 0 1 0"/>
<feBlend mode="normal" in2="effect2_innerShadow_205_2591" result="effect3_innerShadow_205_2591"/>
<feColorMatrix in="SourceAlpha" type="matrix" values="0 0 0 0 0 0 0 0 0 0 0 0 0 0 0 0 0 0 127 0" result="hardAlpha"/>
<feOffset dy="-2"/>
<feComposite in2="hardAlpha" operator="arithmetic" k2="-1" k3="1"/>
<feColorMatrix type="matrix" values="0 0 0 0 0.752941 0 0 0 0 0.752941 0 0 0 0 0.752941 0 0 0 1 0"/>
<feBlend mode="normal" in2="effect3_innerShadow_205_2591" result="effect4_innerShadow_205_2591"/>
<feColorMatrix in="SourceAlpha" type="matrix" values="0 0 0 0 0 0 0 0 0 0 0 0 0 0 0 0 0 0 127 0" result="hardAlpha"/>
<feOffset dx="-2"/>
<feComposite in2="hardAlpha" operator="arithmetic" k2="-1" k3="1"/>
<feColorMatrix type="matrix" values="0 0 0 0 0.752941 0 0 0 0 0.752941 0 0 0 0 0.752941 0 0 0 1 0"/>
<feBlend mode="normal" in2="effect4_innerShadow_205_2591" result="effect5_innerShadow_205_2591"/>
</filter>
</defs>
</svg>
