<svg width="17" height="26" viewBox="0 0 17 26" fill="none" xmlns="http://www.w3.org/2000/svg">
<rect x="0.5" y="0.5" width="16" height="25" stroke="#262626"/>
<g filter="url(#filter0_diiii_205_2576)">
<rect x="1" y="1" width="15" height="24" fill="#BBBBBB"/>
<rect x="1.5" y="1.5" width="14" height="23" stroke="#262626"/>
<path fill-rule="evenodd" clip-rule="evenodd" d="M8.5 7.5H9.5V8.5V9.5H11.5H12.5V10.5V14.5V15.5H11.5H9.5V16.5V17.5H8.5V16.5H7.5V15.5H8.5V14.5H11.5V10.5H8.5V9.5H7.5V8.5H8.5V7.5ZM6.5 10.5V9.5H7.5V10.5H6.5ZM5.5 11.5V10.5H6.5V11.5H5.5ZM5.5 13.5H4.5V11.5H5.5V13.5ZM6.5 14.5H5.5V13.5H6.5V14.5ZM6.5 14.5V15.5H7.5V14.5H6.5Z" fill="#5C5C5C"/>
<path fill-rule="evenodd" clip-rule="evenodd" d="M8.5 9.5H7.5V10.5H6.5V11.5H5.5V13.5H6.5V14.5H7.5V15.5H8.5V14.5H11.5V10.5H8.5V9.5Z" fill="#999999"/>
<g style="mix-blend-mode:darken">
<path fill-rule="evenodd" clip-rule="evenodd" d="M9.5 7H9V7.5H9.5V7ZM8 8H8.5V8.5H8V8ZM7.5 9H7V9.5H7.5V10H8H8.5V9.5H8H7.5V9ZM6.5 10H6V10.5H6.5V11H7V10.5H6.5V10ZM5.5 11H5V11.5H5.5V12H6V11.5H5.5V11ZM4 12H4.5V12.5V13H4V12.5V12ZM5 13.5H5.5V14H5V13.5ZM5.5 13.5H6V13H5.5V13.5ZM6.5 14.5H6V15H6.5V14.5ZM6.5 14.5V14H7V14.5H6.5ZM7 15.5H7.5V16H7V15.5ZM7.5 15.5V15H8H8.5V15.5H8H7.5ZM11 14H11.5V14.5H11V14ZM11.5 10.5H11V11H11.5V10.5ZM8 16.5H8.5V17H8V16.5ZM9.5 17.5H9V18H9.5V17.5ZM9.5 15.5H10V16H9.5V15.5ZM9.5 9H10V9.5H9.5V9ZM13 10H12.5V15H13V10Z" fill="#9A9A9A"/>
</g>
</g>
<defs>
<filter id="filter0_diiii_205_2576" x="1" y="1" width="16" height="25" filterUnits="userSpaceOnUse" color-interpolation-filters="sRGB">
<feFlood flood-opacity="0" result="BackgroundImageFix"/>
<feColorMatrix in="SourceAlpha" type="matrix" values="0 0 0 0 0 0 0 0 0 0 0 0 0 0 0 0 0 0 127 0" result="hardAlpha"/>
<feOffset dx="1" dy="1"/>
<feColorMatrix type="matrix" values="0 0 0 0 0.14902 0 0 0 0 0.14902 0 0 0 0 0.14902 0 0 0 1 0"/>
<feBlend mode="normal" in2="BackgroundImageFix" result="effect1_dropShadow_205_2576"/>
<feBlend mode="normal" in="SourceGraphic" in2="effect1_dropShadow_205_2576" result="shape"/>
<feColorMatrix in="SourceAlpha" type="matrix" values="0 0 0 0 0 0 0 0 0 0 0 0 0 0 0 0 0 0 127 0" result="hardAlpha"/>
<feOffset dy="2"/>
<feComposite in2="hardAlpha" operator="arithmetic" k2="-1" k3="1"/>
<feColorMatrix type="matrix" values="0 0 0 0 1 0 0 0 0 1 0 0 0 0 1 0 0 0 1 0"/>
<feBlend mode="normal" in2="shape" result="effect2_innerShadow_205_2576"/>
<feColorMatrix in="SourceAlpha" type="matrix" values="0 0 0 0 0 0 0 0 0 0 0 0 0 0 0 0 0 0 127 0" result="hardAlpha"/>
<feOffset dx="2"/>
<feComposite in2="hardAlpha" operator="arithmetic" k2="-1" k3="1"/>
<feColorMatrix type="matrix" values="0 0 0 0 1 0 0 0 0 1 0 0 0 0 1 0 0 0 1 0"/>
<feBlend mode="normal" in2="effect2_innerShadow_205_2576" result="effect3_innerShadow_205_2576"/>
<feColorMatrix in="SourceAlpha" type="matrix" values="0 0 0 0 0 0 0 0 0 0 0 0 0 0 0 0 0 0 127 0" result="hardAlpha"/>
<feOffset dy="-2"/>
<feComposite in2="hardAlpha" operator="arithmetic" k2="-1" k3="1"/>
<feColorMatrix type="matrix" values="0 0 0 0 0.501961 0 0 0 0 0.501961 0 0 0 0 0.501961 0 0 0 1 0"/>
<feBlend mode="normal" in2="effect3_innerShadow_205_2576" result="effect4_innerShadow_205_2576"/>
<feColorMatrix in="SourceAlpha" type="matrix" values="0 0 0 0 0 0 0 0 0 0 0 0 0 0 0 0 0 0 127 0" result="hardAlpha"/>
<feOffset dx="-2"/>
<feComposite in2="hardAlpha" operator="arithmetic" k2="-1" k3="1"/>
<feColorMatrix type="matrix" values="0 0 0 0 0.501961 0 0 0 0 0.501961 0 0 0 0 0.501961 0 0 0 1 0"/>
<feBlend mode="normal" in2="effect4_innerShadow_205_2576" result="effect5_innerShadow_205_2576"/>
</filter>
</defs>
</svg>
