<svg width="33" height="32" viewBox="0 0 33 32" fill="none" xmlns="http://www.w3.org/2000/svg">
<path d="M25.025 20H28.025V21H30.025V22H32.025V26.975H31.025V28H30.025V29H29.025V30H28.025V31H27.025V32H23.9031V20H25.025Z" fill="#999999"/>
<path d="M1 3H4V4H6V5H8V6H10V7H12V8H14V9H16V10H18V11H20V12H21V14H22V31H23H20V30H18V29H16V28H14V27H12V26H10V25H8V24H6V23H4V22H2V21H1V3Z" fill="url(#paint0_linear_54_59488)"/>
<path d="M1.02502 2H0.0250244V20H1.02502V2Z" fill="#5B58A6"/>
<path d="M2.02503 2H1.02502V3H2.02503V2Z" fill="#5B58A6"/>
<path d="M2.02502 21H0.0250244V22H2.02502V21Z" fill="#303061"/>
<path d="M4.02502 22H2.02502V23H4.02502V22Z" fill="#303061"/>
<path d="M6.02502 23H4.02502V24H6.02502V23Z" fill="#303061"/>
<path d="M8.02501 24H6.02502V25H8.02501V24Z" fill="#303061"/>
<path d="M10.025 25H8.02502V26H10.025V25Z" fill="#303061"/>
<path d="M12.025 26H10.025V27H12.025V26Z" fill="#303061"/>
<path d="M14.025 27H12.025V28H14.025V27Z" fill="#303061"/>
<path d="M16.025 28H14.025V29H16.025V28Z" fill="#303061"/>
<path d="M18.0249 29H16.0249V30H18.0249V29Z" fill="#303061"/>
<path d="M20.025 30H18.025V31H20.025V30Z" fill="#303061"/>
<path d="M22.025 31H20.025V32H22.025V31Z" fill="#303061"/>
<path d="M24.025 31H22.025V32H24.025V31Z" fill="#303061"/>
<path d="M2.02503 20H1.02502V21H2.02503V20Z" fill="#7E7ED8"/>
<path d="M3.02502 20H2.02502V21H3.02502V20Z" fill="#9998FF"/>
<path d="M1.02502 20H0.0250244V21H1.02502V20Z" fill="#5B58A6"/>
<path d="M4.02502 21H3.02502V22H4.02502V21Z" fill="#7E7ED8"/>
<path d="M5.02502 21H4.02502V22H5.02502V21Z" fill="#9998FF"/>
<path d="M3.02502 21H2.02502V22H3.02502V21Z" fill="#5B58A6"/>
<path d="M6.02502 22H5.02502V23H6.02502V22Z" fill="#7E7ED8"/>
<path d="M7.02502 22H6.02502V23H7.02502V22Z" fill="#9998FF"/>
<path d="M5.02502 22H4.02502V23H5.02502V22Z" fill="#5B58A6"/>
<path d="M8.02501 23H7.02502V24H8.02501V23Z" fill="#7E7ED8"/>
<path d="M9.02502 23H8.02502V24H9.02502V23Z" fill="#9998FF"/>
<path d="M7.02502 23H6.02502V24H7.02502V23Z" fill="#5B58A6"/>
<path d="M10.025 24H9.02502V25H10.025V24Z" fill="#7E7ED8"/>
<path d="M11.025 24H10.025V25H11.025V24Z" fill="#9998FF"/>
<path d="M9.02502 24H8.02502V25H9.02502V24Z" fill="#5B58A6"/>
<path d="M12.025 25H11.025V26H12.025V25Z" fill="#7E7ED8"/>
<path d="M13.025 25H12.025V26H13.025V25Z" fill="#9998FF"/>
<path d="M11.025 25H10.025V26H11.025V25Z" fill="#5B58A6"/>
<path d="M14.025 26H13.025V27H14.025V26Z" fill="#7E7ED8"/>
<path d="M15.025 26H14.025V27H15.025V26Z" fill="#9998FF"/>
<path d="M13.025 26H12.025V27H13.025V26Z" fill="#5B58A6"/>
<path d="M16.025 27H15.025V28H16.025V27Z" fill="#7E7ED8"/>
<path d="M17.025 27H16.025V28H17.025V27Z" fill="#9998FF"/>
<path d="M15.025 27H14.025V28H15.025V27Z" fill="#5B58A6"/>
<path d="M18.0249 28H17.0249V29H18.0249V28Z" fill="#7E7ED8"/>
<path d="M19.0249 28H18.0249V29H19.0249V28Z" fill="#9998FF"/>
<path d="M17.0249 28H16.0249V29H17.0249V28Z" fill="#5B58A6"/>
<path d="M20.025 29H19.025V30H20.025V29Z" fill="#7E7ED8"/>
<path d="M21.025 29H20.025V30H21.025V29Z" fill="#9998FF"/>
<path d="M19.025 29H18.025V30H19.025V29Z" fill="#5B58A6"/>
<path d="M21.025 30H20.025V31H21.025V30Z" fill="#5B58A6"/>
<path d="M22.025 14H21.025V31H22.025V14Z" fill="#7F7DD9"/>
<path d="M23.025 13H22.025V31H23.025V13Z" fill="#303061"/>
<path d="M21.025 11H20.025V12H21.025V11Z" fill="#303061"/>
<path d="M22.025 12H21.025V13H22.025V12Z" fill="#303061"/>
<path d="M20.025 11H19.025V12H20.025V11Z" fill="#4C4C99"/>
<path d="M22.025 11H21.025V12H22.025V11Z" fill="#6E6EC4"/>
<path d="M23.025 12H22.025V13H23.025V12Z" fill="#6E6EC4"/>
<path d="M19.025 10H18.025V11H19.025V10Z" fill="#303061"/>
<path d="M18.025 10H17.025V11H18.025V10Z" fill="#4C4C99"/>
<path d="M20.025 10H19.025V11H20.025V10Z" fill="#6E6EC4"/>
<path d="M17.025 9H16.025V10H17.025V9Z" fill="#303061"/>
<path d="M16.025 9H15.025V10H16.025V9Z" fill="#4C4C99"/>
<path d="M18.025 9H17.025V10H18.025V9Z" fill="#6E6EC4"/>
<path d="M15.025 8H14.025V9H15.025V8Z" fill="#303061"/>
<path d="M14.025 8H13.025V9H14.025V8Z" fill="#4C4C99"/>
<path d="M16.025 8H15.025V9H16.025V8Z" fill="#6E6EC4"/>
<path d="M13.025 7H12.025V8H13.025V7Z" fill="#303061"/>
<path d="M12.025 7H11.025V8H12.025V7Z" fill="#4C4C99"/>
<path d="M14.025 7H13.025V8H14.025V7Z" fill="#6E6EC4"/>
<path d="M11.025 6H10.025V7H11.025V6Z" fill="#303061"/>
<path d="M10.025 6H9.02502V7H10.025V6Z" fill="#4C4C99"/>
<path d="M12.025 6H11.025V7H12.025V6Z" fill="#6E6EC4"/>
<path d="M9.02502 5H8.02502V6H9.02502V5Z" fill="#303061"/>
<path d="M8.02501 5H7.02502V6H8.02501V5Z" fill="#4C4C99"/>
<path d="M10.025 5H9.02502V6H10.025V5Z" fill="#6E6EC4"/>
<path d="M7.02502 4H6.02502V5H7.02502V4Z" fill="#303061"/>
<path d="M6.02502 4H5.02502V5H6.02502V4Z" fill="#4C4C99"/>
<path d="M8.02501 4H7.02502V5H8.02501V4Z" fill="#6E6EC4"/>
<path d="M5.02502 3H4.02502V4H5.02502V3Z" fill="#303061"/>
<path d="M4.02502 3H3.02502V4H4.02502V3Z" fill="#4C4C99"/>
<path d="M6.02502 3H5.02502V4H6.02502V3Z" fill="#6E6EC4"/>
<path d="M3.02502 2H2.02502V3H3.02502V2Z" fill="#303061"/>
<path d="M2.02503 2H1.02502V3H2.02503V2Z" fill="#4C4C99"/>
<path d="M3.02502 1H2.02502V2H3.02502V1Z" fill="#4C4C99"/>
<path d="M4.02502 2H3.02502V3H4.02502V2Z" fill="#6E6EC4"/>
<path d="M22.025 13H21.025V14H22.025V13Z" fill="#D1CFFE"/>
<path d="M20.025 12H19.025V13H20.025V12Z" fill="#D1CFFE"/>
<path d="M21.025 12H20.025V13H21.025V12Z" fill="#8180E6"/>
<path d="M19.025 11H18.025V12H19.025V11Z" fill="#8180E6"/>
<path d="M17.0249 10H16.0249V11H17.0249V10Z" fill="#8180E6"/>
<path d="M15.025 9H14.025V10H15.025V9Z" fill="#8180E6"/>
<path d="M13.025 8H12.025V9H13.025V8Z" fill="#8180E6"/>
<path d="M11.025 7H10.025V8H11.025V7Z" fill="#8180E6"/>
<path d="M9.02502 6H8.02502V7H9.02502V6Z" fill="#8180E6"/>
<path d="M7.02502 5H6.02502V6H7.02502V5Z" fill="#8180E6"/>
<path d="M5.02502 4H4.02502V5H5.02502V4Z" fill="#8180E6"/>
<path d="M3.02502 3H2.02502V4H3.02502V3Z" fill="#8180E6"/>
<path d="M18.025 11H17.025V12H18.025V11Z" fill="#D1CFFE"/>
<path d="M16.025 10H15.025V11H16.025V10Z" fill="#D1CFFE"/>
<path d="M14.025 9H13.025V10H14.025V9Z" fill="#D1CFFE"/>
<path d="M12.025 8H11.025V9H12.025V8Z" fill="#D1CFFE"/>
<path d="M10.025 7H9.02502V8H10.025V7Z" fill="#D1CFFE"/>
<path d="M8.02501 6H7.02502V7H8.02501V6Z" fill="#D1CFFE"/>
<path d="M6.02502 5H5.02502V6H6.02502V5Z" fill="#D1CFFE"/>
<path d="M4.02502 4H3.02502V5H4.02502V4Z" fill="#D1CFFE"/>
<path d="M2.02503 3H1.02502V4H2.02503V3Z" fill="#D1CFFE"/>
<path d="M24.025 11H23.025V31H24.025V11Z" fill="#4C4C99"/>
<path d="M11.025 3H10.025V4H11.025V3Z" fill="#303061"/>
<path d="M10.025 3H9.02502V4H10.025V3Z" fill="#4C4C99"/>
<path d="M9.02502 3H8.02502V4H9.02502V3Z" fill="#6E6EC4"/>
<path d="M12.025 3H11.025V4H12.025V3Z" fill="#3C3C79"/>
<path d="M13.025 4H12.025V5H13.025V4Z" fill="#303061"/>
<path d="M12.025 4H11.025V5H12.025V4Z" fill="#4C4C99"/>
<path d="M11.025 4H10.025V5H11.025V4Z" fill="#6E6EC4"/>
<path d="M14.025 5H13.025V6H14.025V5Z" fill="#3C3C79"/>
<path d="M15.025 4H14.025V5H15.025V4Z" fill="#3C3C79"/>
<path d="M15.025 5H14.025V6H15.025V5Z" fill="#4C4C99"/>
<path d="M20.025 5H19.025V6H20.025V5Z" fill="#303061"/>
<path d="M19.025 5H18.025V6H19.025V5Z" fill="#4C4C99"/>
<path d="M18.025 5H17.025V6H18.025V5Z" fill="#6E6EC4"/>
<path d="M19.025 6H18.025V7H19.025V6Z" fill="#8180E6"/>
<path d="M23.025 9H22.025V10H23.025V9Z" fill="#8180E6"/>
<path d="M17.025 5H16.025V6H17.025V5Z" fill="#8180E6"/>
<path d="M23.025 11H22.025V12H23.025V11Z" fill="#8180E6"/>
<path d="M16.025 5H15.025V6H16.025V5Z" fill="#6E6EC4"/>
<path d="M17.025 4H16.025V5H17.025V4Z" fill="#303061"/>
<path d="M16.025 4H15.025V5H16.025V4Z" fill="#3C3C79"/>
<path d="M18.025 4H17.025V5H18.025V4Z" fill="#3C3C79"/>
<path d="M22.025 6H21.025V7H22.025V6Z" fill="#303061"/>
<path d="M24.025 8H23.025V9H24.025V8Z" fill="#303061"/>
<path d="M21.025 6H20.025V7H21.025V6Z" fill="#4C4C99"/>
<path d="M22.025 7H21.025V8H22.025V7Z" fill="#4C4C99"/>
<path d="M23.025 7H22.025V8H23.025V7Z" fill="#4C4C99"/>
<path d="M24.025 9H23.025V11H24.025V9Z" fill="#4C4C99"/>
<path d="M20.025 6H19.025V7H20.025V6Z" fill="#6E6EC4"/>
<path d="M23.025 8H22.025V9H23.025V8Z" fill="#6E6EC4"/>
<path d="M23.025 10H22.025V11H23.025V10Z" fill="#6E6EC4"/>
<path d="M9.02502 2H8.02502V3H9.02502V2Z" fill="#303061"/>
<path d="M8.02501 2H7.02502V3H8.02501V2Z" fill="#4C4C99"/>
<path d="M7.02502 2H6.02502V3H7.02502V2Z" fill="#6E6EC4"/>
<path d="M10.025 2H9.02502V3H10.025V2Z" fill="#3C3C79"/>
<path d="M7.02502 1H6.02502V2H7.02502V1Z" fill="#303061"/>
<path d="M6.02502 1H5.02502V2H6.02502V1Z" fill="#4C4C99"/>
<path d="M5.02502 1H4.02502V2H5.02502V1Z" fill="#6E6EC4"/>
<path d="M8.02501 1H7.02502V2H8.02501V1Z" fill="#3C3C79"/>
<path d="M5.02502 0H4.02502V1H5.02502V0Z" fill="#303061"/>
<path d="M4.02502 0H3.02502V1H4.02502V0Z" fill="#4C4C99"/>
<path d="M3.02502 0H2.02502V1H3.02502V0Z" fill="#6E6EC4"/>
<path d="M6.02502 0H5.02502V1H6.02502V0Z" fill="#3C3C79"/>
<path d="M4.02502 1H3.02502V2H4.02502V1Z" fill="#9998FF"/>
<path d="M6.02502 2H4.02502V3H6.02502V2Z" fill="#9998FF"/>
<path d="M8.02501 3H6.02502V4H8.02501V3Z" fill="#9998FF"/>
<path d="M10.025 4H8.02502V5H10.025V4Z" fill="#9998FF"/>
<path d="M13.025 5H10.025V6H13.025V5Z" fill="#9998FF"/>
<path d="M14.025 6H12.025V7H14.025V6Z" fill="#9998FF"/>
<path d="M21.025 7H14.025V8H21.025V7Z" fill="#9998FF"/>
<path d="M18.025 6H14.025V7H18.025V6Z" fill="#9998FF"/>
<path d="M22.0249 8H16.0249V9H22.0249V8Z" fill="#9998FF"/>
<path d="M22.025 9H18.025V10H22.025V9Z" fill="#9998FF"/>
<path d="M22.025 10H20.025V11H22.025V10Z" fill="#9998FF"/>
<path d="M25.0249 9H24.0249V31H25.0249V9Z" fill="#303061"/>
<defs>
<linearGradient id="paint0_linear_54_59488" x1="0.192044" y1="10.382" x2="20.9831" y2="22.1505" gradientUnits="userSpaceOnUse">
<stop stop-color="#CDCEFC"/>
<stop offset="1" stop-color="#9F9FF5"/>
</linearGradient>
</defs>
</svg>
